<svg id="Layer_1" data-name="Layer 1" xmlns="http://www.w3.org/2000/svg" viewBox="0 0 3973.26 783.72"><defs><style>.cls-1{fill:#e5e5dc;}.cls-2{fill:#e1dfd2;}.cls-3{fill:#e4e7e7;}.cls-4{fill:#e0ded1;}.cls-5{fill:#e2e2df;}.cls-6{fill:none;}.cls-11,.cls-7{fill:#d95613;}.cls-8,.cls-9{fill:#212121;}.cls-11,.cls-9{font-size:698.29px;font-family:CorleoneDue, Corleone Due;}.cls-9{letter-spacing:-0.02em;}.cls-10{letter-spacing:0em;}.cls-12{letter-spacing:-0.01em;}.cls-13{letter-spacing:-0.01em;}.cls-14{letter-spacing:-0.08em;}.cls-15{letter-spacing:-0.01em;}.cls-16{letter-spacing:-0.01em;}.cls-17{letter-spacing:0em;}</style></defs><path class="cls-1" d="M564,541.14l-1-2.08Z"/><path class="cls-2" d="M334.19,548.59l2.25,3.89c-2.66.67-4.21,4.61-7.37,1.18Z"/><path class="cls-3" d="M476.6,671.32l1,2.34-2.68-.71Z"/><path class="cls-4" d="M130.6,223.6l.63-.39c-.09.26-.17.52-.26.78Z"/><path class="cls-5" d="M489.91,669.59l4.17-4.18Z"/><path class="cls-5" d="M486.3,668.38l-.51.67a4.62,4.62,0,0,1-.53-.64s.2-.36.25-.35A5.94,5.94,0,0,1,486.3,668.38Z"/><path class="cls-6" d="M290.58,389.09c3.46,3.17,7.64,3.3,11.21.19,5.23-4.57,9.11-9.33,8.08-17.3-1-7.52-.18-15.26-.17-22.91V333.43l-25.94-2.12c0,14,.61,27.56-.24,41C283.06,379.68,285.65,384.58,290.58,389.09Z"/><path class="cls-6" d="M285.7,728h20.16v-83.4H285.7Z"/><path class="cls-6" d="M395.69,486.71c-1.6,1.33-3.3,2.54-4.76,4q-18.76,18.75-37.42,37.6c-6.55,6.66-12.89,13.52-19.32,20.28l-5.12,5.07-3,3.18c-2.19,2.09-4.38,4.18-6.72,6.43l5.57,5.43c.84.87,1.67,1.75,2.51,2.63,3.54,3.8,7.08,7.62,10.64,11.4,1.91,2,1.89,3.61-.29,5.66-5.83,5.46-11.39,11.21-17.12,16.79-3.21,3.12-6.53,6.13-9.8,9.18a6.91,6.91,0,0,1,.41-4.55c1.75-3.9-.18-5-3.59-6.73-9.41-4.63-18.07-2.4-27,1.32l1.76,10.24L280.72,616c-8.29-8.81-16.43-17.77-25-26.35-3.56-3.57-3.44-5.91.2-9.25,5.84-5.37,11.25-11.21,17.08-17.1-30.09-30.83-59.91-60.79-90.29-89.82L258,727.72h10.78a25,25,0,0,0,.39-3.15c.06-28.7,0-57.41.24-86.11a14.75,14.75,0,0,1,2.54-7.43c6.81-10.66,16.18-16.1,29.23-13.55,1.51.29,3.16-.17,4.67.12s3.18.7,4.1,1.7c4,4.32,7.94,8.76,11.59,13.4a9.09,9.09,0,0,1,1.53,5.24c0,28.53-.09,57.06-.15,85.6,0,1.33.17,2.67.27,4.19H335c.23-.69.45-1.32.63-2q19.67-67,39.29-134c6.12-21,12-42.07,18-63.11l10.47-35.51Q406.65,483,410,472.87l-1-.45Z"/><path class="cls-6" d="M375.26,294.48c30.19-3.88,60.25-8.78,88.82-19.74a137.19,137.19,0,0,0,28.44-14.91c8.18-5.61,7.83-14.28.54-20.85-9.16-8.27-20.56-12.06-32.4-16,.88,4.38,1.28,8.22,2.46,11.79,1.76,5.31-.34,8.43-5,10.18-11.21,4.18-22.27,8.95-33.77,12.11-35.89,9.86-72.61,14.27-109.77,15.19-47.84,1.17-95.31-2-141.78-14.16-12.89-3.39-25.44-8.23-37.87-13.09-7-2.75-7-3.86-5.51-11.25.65-3.23,1.07-6.49,1.59-9.74l.26-.78-.63.39c-11.6,2.81-22.53,7.18-31.71,14.94-7.39,6.24-7.41,14-.47,20.69a23.89,23.89,0,0,0,6.63,5c12.57,5.41,24.91,11.74,38,15.53,45.86,13.31,93,18.41,140.61,19.84C314.31,300.52,344.86,298.38,375.26,294.48Z"/><path class="cls-6" d="M236,158.07c40.38,7.22,80.55,6.53,121.29.17-4.22-11-8.42-21.06-12-31.38-4-11.64-7.09-23.65-11.52-35.12-1.67-4.32-1.26-6.51,2-9.15,12.75-10.3,25.4-20.71,38.29-31.25-4.66-.18-10-1.06-15.13-.45-10.85,1.28-21.92,2.24-32.33,5.3-20.83,6.11-41,5.87-61.94,0-12.56-3.54-26-4.07-39.07-5.65-2.69-.32-5.55.7-7.7,1l43.49,34.37Z"/><path class="cls-6" d="M392.06,239c-1.46-6.21-2.94-12.51-4.34-18.45-14.89,2.26-28.94,4.49-43,6.5-7.39,1.05-10.47-1.76-10.77-9.28-.34-8.34,2-10.66,10.82-11.79,12.86-1.66,25.68-3.65,39-5.58-1.36-7-2.58-13.16-3.81-19.47-56.11,11.15-111.72,11-167.67.29-1.19,6.24-2.32,12.13-3.54,18.54,5.13,1.05,9.82,2.18,14.57,2.93,9.44,1.5,18.93,2.63,28.34,4.25,5.39.93,7.44,5.45,6.4,12.77-.73,5.2-4.09,8-9.34,7.41-5.52-.59-11.05-1.23-16.54-2.12-9.22-1.49-18.41-3.2-28.07-4.89-1.38,6.52-2.68,12.71-4,18.8C230.81,251.05,361.84,251.13,392.06,239Z"/><path class="cls-7" d="M222.92,450c8.15-1.12,16.36-1.94,24.45-3.44,11.09-2.05,22.07-4.67,33.13-6.89,2.13-.43,4.41-.13,6.62-.17,5.7-.11,11.39-.37,17.08-.27a76.53,76.53,0,0,1,10.78,1c17.66,2.84,35.3,5.79,53,8.68a13.2,13.2,0,0,0,2,0l1.05-1.26-47.17-44.56.41-.24-56.17.77L221.8,448Z"/><path class="cls-6" d="M236,158.07c40.38,7.22,80.55,6.53,121.29.17-4.22-11-8.42-21.06-12-31.38-4-11.64-7.09-23.65-11.52-35.12-1.67-4.32-1.26-6.51,2-9.15,12.75-10.3,25.4-20.71,38.29-31.25-4.66-.18-10-1.06-15.13-.45-10.85,1.28-21.92,2.24-32.33,5.3-20.83,6.11-41,5.87-61.94,0-12.56-3.54-26-4.07-39.07-5.65-2.69-.32-5.55.7-7.7,1l43.49,34.37Z"/><path class="cls-6" d="M464.08,274.74a137.19,137.19,0,0,0,28.44-14.91c8.18-5.61,7.83-14.28.54-20.85-9.16-8.27-20.56-12.06-32.4-16,.88,4.38,1.28,8.22,2.46,11.79,1.76,5.31-.34,8.43-5,10.18-11.21,4.18-22.27,8.95-33.77,12.11-35.89,9.86-72.61,14.27-109.77,15.19-47.84,1.17-95.31-2-141.78-14.16-12.89-3.39-25.44-8.23-37.87-13.09-7-2.75-7-3.86-5.51-11.25.65-3.23,1.07-6.49,1.59-9.74l.26-.78-.63.39c-11.6,2.81-22.53,7.18-31.71,14.94-7.39,6.24-7.41,14-.47,20.69a23.89,23.89,0,0,0,6.63,5c12.57,5.41,24.91,11.74,38,15.53,45.86,13.31,93,18.41,140.61,19.84,30.67.93,61.22-1.21,91.62-5.11C405.45,290.6,435.51,285.7,464.08,274.74Z"/><path class="cls-6" d="M392.06,239c-1.46-6.21-2.94-12.51-4.34-18.45-14.89,2.26-28.94,4.49-43,6.5-7.39,1.05-10.47-1.76-10.77-9.28-.34-8.34,2-10.66,10.82-11.79,12.86-1.66,25.68-3.65,39-5.58-1.36-7-2.58-13.16-3.81-19.47-56.11,11.15-111.72,11-167.67.29-1.19,6.24-2.32,12.13-3.54,18.54,5.13,1.05,9.82,2.18,14.57,2.93,9.44,1.5,18.93,2.63,28.34,4.25,5.39.93,7.44,5.45,6.4,12.77-.73,5.2-4.09,8-9.34,7.41-5.52-.59-11.05-1.23-16.54-2.12-9.22-1.49-18.41-3.2-28.07-4.89-1.38,6.52-2.68,12.71-4,18.8C230.81,251.05,361.84,251.13,392.06,239Z"/><path class="cls-8" d="M495.92,302.42c3-.81,5.79-1.44,8.5-1.94,2-.57,4.08-1.15,6.11-1.76,16.53-4.91,32.73-11.16,46-22.6,16.8-14.49,18.84-27.58,1.29-42.36a93.22,93.22,0,0,0-17-11c-25.27-13.18-52.92-18.72-80.55-24.15-3.31-.66-4.87-1.89-5.74-5.27q-15.65-61.08-31.71-122c-1.62-6.09-3.61-12.86-7.6-17.41-13.14-15-29.45-24-50.25-20.42-14.53,2.53-29,5.63-43.34,9-15.27,3.61-30.25,5-45.83,1a502.77,502.77,0,0,0-50-10.17C201.79,29.65,176.22,46,170.52,68q-15.95,61.53-31.37,123.22c-1.15,4.6-3.13,6.71-8,7.57-24.49,4.36-48.66,10.09-71.64,19.93-11.39,4.88-22.35,10.59-30.85,20-8.86,9.75-9.54,21.32-.5,30.91a84.21,84.21,0,0,0,20,15.54c24.29,13.53,51,20,78.06,25.22a12.5,12.5,0,0,1,4.66,1.66C243,334.13,373.39,335.93,495.92,302.42ZM225.58,50.53c13.08,1.58,26.51,2.11,39.07,5.65,20.91,5.88,41.11,6.12,61.94,0,10.41-3.06,21.48-4,32.33-5.3,5.15-.61,10.47.27,15.13.45-12.89,10.54-25.54,21-38.29,31.25-3.26,2.64-3.67,4.83-2,9.15,4.43,11.47,7.47,23.48,11.52,35.12,3.59,10.32,7.79,20.43,12,31.38-40.74,6.36-80.91,7-121.29-.17l25.37-72.15L217.88,51.55C220,51.23,222.89,50.21,225.58,50.53Zm-21.47,169.6c9.66,1.69,18.85,3.4,28.07,4.89,5.49.89,11,1.53,16.54,2.12,5.25.55,8.61-2.21,9.34-7.41,1-7.32-1-11.84-6.4-12.77-9.41-1.62-18.9-2.75-28.34-4.25-4.75-.75-9.44-1.88-14.57-2.93,1.22-6.41,2.35-12.3,3.54-18.54,56,10.69,111.56,10.86,167.67-.29,1.23,6.31,2.45,12.51,3.81,19.47-13.35,1.93-26.17,3.92-39,5.58-8.8,1.13-11.16,3.45-10.82,11.79.3,7.52,3.38,10.33,10.77,9.28,14.09-2,28.14-4.24,43-6.5,1.4,5.94,2.88,12.24,4.34,18.45-30.22,12.11-161.25,12-191.92-.09C201.43,232.84,202.73,226.65,204.11,220.13Zm79.53,79.46c-47.59-1.43-94.75-6.53-140.61-19.84-13.07-3.79-25.41-10.12-38-15.53a23.89,23.89,0,0,1-6.63-5c-6.94-6.69-6.92-14.45.47-20.69,9.18-7.76,20.11-12.13,31.71-14.94l.63-.39L131,224c-.52,3.25-.94,6.51-1.59,9.74-1.48,7.39-1.54,8.5,5.51,11.25,12.43,4.86,25,9.7,37.87,13.09,46.47,12.2,93.94,15.33,141.78,14.16,37.16-.92,73.88-5.33,109.77-15.19,11.5-3.16,22.56-7.93,33.77-12.11,4.7-1.75,6.8-4.87,5-10.18-1.18-3.57-1.58-7.41-2.46-11.79,11.84,4,23.24,7.75,32.4,16,7.29,6.57,7.64,15.24-.54,20.85a137.19,137.19,0,0,1-28.44,14.91c-28.57,11-58.63,15.86-88.82,19.74C344.86,298.38,314.31,300.52,283.64,299.59Z"/><path class="cls-6" d="M290.58,389.09c3.46,3.17,7.64,3.3,11.21.19,5.23-4.57,9.11-9.33,8.08-17.3-1-7.52-.18-15.26-.17-22.91V333.43l-25.94-2.12c0,14,.61,27.56-.24,41C283.06,379.68,285.65,384.58,290.58,389.09Z"/><path class="cls-6" d="M209,371c8.25,8.17,8.18,8.14,3.6,19.06-6.59,15.7-16.1,30.67-12.71,49,.09.51-.14,1.11.05,1.55,1.16,2.75,1.71,6.16,3.69,8.09,19.95,19.4,40.13,38.57,60.26,57.78,1.8,1.72,3.7,3.33,6.15,5.53,0-5.58.27-10.07-.06-14.53-.85-11.72.57-22.79,7.76-32.59,1.32-1.79,1.77-4.22,3.13-6,1.06-1.39,2.85-3,4.39-3.09,7.12-.34,14.27-.31,21.39-.07a6.33,6.33,0,0,1,4.49,2.4c11.46,18.49,11.42,18.51,11.67,40.28,0,3.31-.07,6.61,0,9.92a30.32,30.32,0,0,0,.37,3.19c19.66-18.82,38.66-37.73,58.51-55.68,8.14-7.36,11.87-14.87,11.2-26-.52-8.48-1.18-16.41-5.25-24-3.36-6.27-5.69-13.09-9.07-19.34-2.8-5.16-1.72-8.52,2.32-12.54,9.61-9.57,18.69-19.67,27.94-29.59,1.34-1.44,2.45-3.09,4.17-5.28a22.5,22.5,0,0,0-2.44.34c-23.07,7.08-46.15,14.13-69.15,21.42-1.32.41-2.8,2.79-2.86,4.3-.31,8.17-.34,16.36-.16,24.53.09,3.91-1,6.58-4.76,8.22-3,1.32-5.84,3.1-9.37,5.05l-56.17.77.17-.17c-3.46-2.05-6-4-8.84-5.13-3.92-1.52-4.94-4.15-4.86-8,.18-8.35,0-16.71.14-25.06.05-2.88-.64-4.14-3.74-4.91q-24.49-6.14-48.84-12.91c-7.45-2.07-14.73-4.79-22.09-7.22a23.84,23.84,0,0,0,5.26,7.16C193.14,355.32,201.07,363.12,209,371Z"/><path class="cls-6" d="M285.7,728h20.16v-83.4H285.7Z"/><path class="cls-6" d="M395.69,486.71c-1.6,1.33-3.3,2.54-4.76,4q-18.76,18.75-37.42,37.6c-6.55,6.66-12.89,13.52-19.32,20.28l-5.12,5.07-3,3.18c-2.19,2.09-4.38,4.18-6.72,6.43l5.57,5.43c.84.87,1.67,1.75,2.51,2.63,3.54,3.8,7.08,7.62,10.64,11.4,1.91,2,1.89,3.61-.29,5.66-5.83,5.46-11.39,11.21-17.12,16.79-3.21,3.12-6.53,6.13-9.8,9.18a6.91,6.91,0,0,1,.41-4.55c1.75-3.9-.18-5-3.59-6.73-9.41-4.63-18.07-2.4-27,1.32l1.76,10.24L280.72,616c-8.29-8.81-16.43-17.77-25-26.35-3.56-3.57-3.44-5.91.2-9.25,5.84-5.37,11.25-11.21,17.08-17.1-30.09-30.83-59.91-60.79-90.29-89.82L258,727.72h10.78a25,25,0,0,0,.39-3.15c.06-28.7,0-57.41.24-86.11a14.75,14.75,0,0,1,2.54-7.43c6.81-10.66,16.18-16.1,29.23-13.55,1.51.29,3.16-.17,4.67.12s3.18.7,4.1,1.7c4,4.32,7.94,8.76,11.59,13.4a9.09,9.09,0,0,1,1.53,5.24c0,28.53-.09,57.06-.15,85.6,0,1.33.17,2.67.27,4.19H335c.23-.69.45-1.32.63-2q19.67-67,39.29-134c6.12-21,12-42.07,18-63.11l10.47-35.51Q406.65,483,410,472.87l-1-.45Z"/><path class="cls-8" d="M134.11,317.23c5.27,20.53,11.14,40.9,16.79,61.33,2.18,7.87,2.17,7.86,10.19,8.09,1.32,0,2.64.26,4.24.42,1.12,14.91,2.34,29.47,3.17,44.05.1,1.68-1.49,4.1-3,5.13Q98.88,481.16,32,525.71c-4.15,2.75-4.28,5.18-2.93,9.3a301.55,301.55,0,0,0,29.21,63.3c31.59,51.84,72.22,94.75,125.27,125,31,17.7,64.22,29.13,100.07,31.71,38.86,2.8,75.15-7,109.92-23.44,22.28-10.53,42.33-24.6,61.46-40L474.92,673l1.68-1.63,1.06-.88c9.88-11.38,19.86-22.68,29.6-34.19,3.45-4.07,6.4-8.59,9.44-13,16.16-23.42,30.25-48,40.2-74.74,1.2-3.24,2.86-6.3,4.31-9.45a13.18,13.18,0,0,1,.88-3c2.81-5,.75-7.8-3.69-10.73-23.23-15.3-46.24-30.92-69.33-46.43q-31.83-21.37-63.61-42.81c-1.39-.94-3.21-2.9-3.06-4.18,1.78-15,3.89-29.92,6-45.07l10.2-.45c.45-1.33.95-2.61,1.31-3.92,6.14-22.05,12.4-44.07,18.27-66.19,1-3.64,2.57-4.94,6-5.76,13.46-3.25,27-6.33,40.31-10.06-2.71.5-5.53,1.13-8.5,1.94C373.39,335.93,243,334.13,130.87,312,132.39,313,133.43,314.57,134.11,317.23ZM305.86,728H285.7v-83.4h20.16Zm97.5-234.82-10.47,35.51c-6,21-11.9,42.11-18,63.11q-19.55,67-39.29,134c-.18.64-.4,1.27-.63,2H323.17c-.1-1.52-.27-2.86-.27-4.19.06-28.54.16-57.07.15-85.6a9.09,9.09,0,0,0-1.53-5.24c-3.65-4.64-7.56-9.08-11.59-13.4-.92-1-2.66-1.43-4.1-1.7s-3.16.17-4.67-.12c-13.05-2.55-22.42,2.89-29.23,13.55a14.75,14.75,0,0,0-2.54,7.43c-.21,28.7-.18,57.41-.24,86.11a25,25,0,0,1-.39,3.15H258L182.76,473.51c30.38,29,60.2,59,90.29,89.82-5.83,5.89-11.24,11.73-17.08,17.1-3.64,3.34-3.76,5.68-.2,9.25,8.52,8.58,16.66,17.54,25,26.35l1.69-1.39-1.76-10.24c9-3.72,17.62-5.95,27-1.32,3.41,1.68,5.34,2.83,3.59,6.73a6.91,6.91,0,0,0-.41,4.55c3.27-3.05,6.59-6.06,9.8-9.18,5.73-5.58,11.29-11.33,17.12-16.79,2.18-2,2.2-3.64.29-5.66-3.56-3.78-7.1-7.6-10.64-11.4-.84-.88-1.67-1.76-2.51-2.63l-5.57-5.43c2.34-2.25,4.53-4.34,6.72-6.43l3-3.18,5.12-5.07c6.43-6.76,12.77-13.62,19.32-20.28q18.6-18.9,37.42-37.6c1.46-1.46,3.16-2.67,4.76-4L409,472.42l1,.45Q406.65,483,403.36,493.14ZM283.52,372.34c.85-13.47.24-27,.24-41l25.94,2.12v15.64c0,7.65-.79,15.39.17,22.91,1,8-2.85,12.73-8.08,17.3-3.57,3.11-7.75,3-11.21-.19C285.65,384.58,283.06,379.68,283.52,372.34Zm-81.44-24.82q24.33,6.76,48.84,12.91c3.1.77,3.79,2,3.74,4.91-.17,8.35,0,16.71-.14,25.06-.08,3.86.94,6.49,4.86,8,2.86,1.1,5.38,3.08,8.84,5.13l-.17.17,56.17-.77c3.53-1.95,6.36-3.73,9.37-5.05,3.75-1.64,4.85-4.31,4.76-8.22-.18-8.17-.15-16.36.16-24.53.06-1.51,1.54-3.89,2.86-4.3,23-7.29,46.08-14.34,69.15-21.42a22.5,22.5,0,0,1,2.44-.34c-1.72,2.19-2.83,3.84-4.17,5.28-9.25,9.92-18.33,20-27.94,29.59-4,4-5.12,7.38-2.32,12.54,3.38,6.25,5.71,13.07,9.07,19.34,4.07,7.6,4.73,15.53,5.25,24,.67,11.09-3.06,18.6-11.2,26-19.85,17.95-38.85,36.86-58.51,55.68a30.32,30.32,0,0,1-.37-3.19c0-3.31.07-6.61,0-9.92-.25-21.77-.21-21.79-11.67-40.28a6.33,6.33,0,0,0-4.49-2.4c-7.12-.24-14.27-.27-21.39.07-1.54.07-3.33,1.7-4.39,3.09-1.36,1.75-1.81,4.18-3.13,6-7.19,9.8-8.61,20.87-7.76,32.59.33,4.46.06,8.95.06,14.53-2.45-2.2-4.35-3.81-6.15-5.53-20.13-19.21-40.31-38.38-60.26-57.78-2-1.93-2.53-5.34-3.69-8.09-.19-.44,0-1-.05-1.55-3.39-18.3,6.12-33.27,12.71-49,4.58-10.92,4.65-10.89-3.6-19.06-7.92-7.84-15.85-15.64-23.74-23.5A23.84,23.84,0,0,1,180,340.3C187.35,342.73,194.63,345.45,202.08,347.52Z"/><text class="cls-9" transform="translate(659.31 702.39)">T<tspan class="cls-10" x="269.02" y="0">he</tspan></text><text class="cls-11" transform="translate(1593.8 720.31)"><tspan class="cls-12">G</tspan><tspan class="cls-13" x="297.66" y="0">o</tspan><tspan x="557.13" y="0">d</tspan><tspan class="cls-14" x="805.35" y="0">F</tspan><tspan class="cls-15" x="1038.92" y="0">u</tspan><tspan x="1312.37" y="0">n</tspan><tspan class="cls-16" x="1588.21" y="0">d</tspan><tspan class="cls-12" x="1831.31" y="0">e</tspan><tspan class="cls-17" x="2084.31" y="0">d</tspan></text></svg>