<svg id="Layer_1" data-name="Layer 1" xmlns="http://www.w3.org/2000/svg" viewBox="0 0 4010.36 722.89"><defs><style>.cls-1{fill:#e5e5dc;}.cls-2{fill:#e1dfd2;}.cls-3{fill:#e4e7e7;}.cls-4{fill:#e0ded1;}.cls-5{fill:#e2e2df;}.cls-6{fill:none;}.cls-11,.cls-7{fill:#d95613;}.cls-8,.cls-9{fill:#e9e9e9;}.cls-11,.cls-9{font-size:698.29px;font-family:CorleoneDue, Corleone Due;}.cls-9{letter-spacing:-0.02em;}.cls-10{letter-spacing:0em;}.cls-12{letter-spacing:-0.01em;}.cls-13{letter-spacing:-0.01em;}.cls-14{letter-spacing:-0.08em;}.cls-15{letter-spacing:-0.01em;}.cls-16{letter-spacing:-0.01em;}.cls-17{letter-spacing:0em;}</style></defs><path class="cls-1" d="M542.34,508.51l-1-2.08Z"/><path class="cls-2" d="M312.49,516l2.25,3.89c-2.66.67-4.21,4.61-7.37,1.18Z"/><path class="cls-3" d="M454.9,638.69l1,2.34-2.68-.71Z"/><path class="cls-4" d="M108.9,191l.63-.39c-.09.26-.18.52-.26.78Z"/><path class="cls-5" d="M468.21,637l4.17-4.18Z"/><path class="cls-5" d="M464.59,635.75c-.16.23-.33.45-.5.67a4.62,4.62,0,0,1-.53-.64s.2-.36.25-.35A5.81,5.81,0,0,1,464.59,635.75Z"/><path class="cls-6" d="M268.88,356.46c3.46,3.17,7.64,3.3,11.21.19,5.23-4.57,9.11-9.33,8.08-17.3-1-7.52-.18-15.26-.17-22.91V300.8l-25.94-2.12c0,14,.61,27.56-.24,41C261.36,347.05,264,352,268.88,356.46Z"/><path class="cls-6" d="M264,695.33h20.16v-83.4H264Z"/><path class="cls-6" d="M374,454.08c-1.6,1.33-3.31,2.54-4.76,4q-18.76,18.75-37.42,37.6c-6.55,6.66-12.89,13.52-19.32,20.28L307.37,521l-3,3.18c-2.19,2.09-4.38,4.18-6.72,6.43l5.57,5.43c.84.87,1.67,1.75,2.51,2.63,3.54,3.8,7.08,7.62,10.64,11.4,1.91,2,1.89,3.61-.29,5.66-5.83,5.46-11.4,11.21-17.12,16.79-3.21,3.12-6.53,6.13-9.8,9.18a6.91,6.91,0,0,1,.41-4.55c1.74-3.9-.18-5-3.6-6.73-9.4-4.63-18.06-2.4-27,1.32L260.71,582,259,583.4c-8.3-8.81-16.43-17.77-25-26.35-3.55-3.57-3.43-5.91.21-9.25,5.84-5.37,11.25-11.21,17.08-17.1-30.09-30.83-59.91-60.8-90.3-89.82q37.57,126.95,75.23,254.21h10.78a25,25,0,0,0,.39-3.15c.06-28.7,0-57.41.23-86.11a14.94,14.94,0,0,1,2.54-7.43c6.82-10.66,16.19-16.1,29.24-13.55,1.5.29,3.16-.17,4.67.11s3.17.71,4.1,1.71c4,4.32,7.94,8.76,11.59,13.4a9,9,0,0,1,1.52,5.24c0,28.53-.08,57.06-.14,85.6,0,1.33.16,2.67.27,4.19h11.78c.23-.69.44-1.32.63-2q19.67-67,39.29-134c6.12-21,12-42.07,18-63.11l10.47-35.51,6.6-20.27-1-.45Z"/><path class="cls-6" d="M353.56,261.85c30.18-3.88,60.25-8.78,88.82-19.74a137.19,137.19,0,0,0,28.44-14.91c8.18-5.61,7.83-14.28.54-20.85-9.17-8.27-20.56-12.06-32.4-16,.88,4.38,1.28,8.22,2.46,11.79,1.76,5.31-.35,8.43-5,10.18-11.21,4.18-22.27,8.95-33.77,12.11-35.89,9.86-72.61,14.27-109.77,15.19-47.84,1.17-95.31-2-141.78-14.16-12.89-3.39-25.44-8.23-37.87-13.09-7-2.75-7-3.86-5.51-11.25.65-3.23,1.07-6.49,1.59-9.74l.26-.78-.63.39c-11.6,2.81-22.53,7.18-31.71,14.94-7.39,6.24-7.41,14-.47,20.69a23.89,23.89,0,0,0,6.63,5c12.57,5.41,24.91,11.74,38,15.53,45.86,13.31,93,18.41,140.61,19.84C292.61,267.89,323.16,265.75,353.56,261.85Z"/><path class="cls-6" d="M214.3,125.44c40.38,7.22,80.55,6.53,121.29.17-4.22-11-8.42-21.06-12-31.38-4.05-11.64-7.09-23.65-11.53-35.12-1.66-4.32-1.25-6.51,2-9.15,12.75-10.3,25.4-20.71,38.29-31.25-4.66-.18-10-1.06-15.13-.45-10.85,1.28-21.92,2.24-32.33,5.3-20.83,6.11-41,5.87-61.94,0-12.57-3.54-26-4.07-39.07-5.65-2.69-.32-5.55.7-7.7,1l43.49,34.37Z"/><path class="cls-6" d="M370.36,206.39c-1.46-6.21-2.94-12.51-4.34-18.45-14.89,2.26-28.94,4.49-43,6.5-7.39,1.05-10.47-1.76-10.77-9.28-.34-8.34,2-10.66,10.82-11.79,12.86-1.66,25.68-3.65,39-5.58-1.36-7-2.58-13.16-3.81-19.47-56.11,11.15-111.72,11-167.67.29-1.19,6.24-2.32,12.13-3.54,18.54,5.13,1,9.82,2.18,14.57,2.93,9.44,1.5,18.93,2.63,28.34,4.25,5.39.93,7.44,5.45,6.4,12.77-.73,5.2-4.09,8-9.34,7.41-5.53-.59-11.05-1.23-16.54-2.12-9.22-1.49-18.41-3.2-28.07-4.89-1.38,6.52-2.68,12.71-4,18.8C209.11,218.42,340.13,218.5,370.36,206.39Z"/><path class="cls-7" d="M201.22,417.41c8.15-1.12,16.36-1.94,24.45-3.44,11.09-2.05,22.07-4.67,33.13-6.89,2.13-.43,4.41-.13,6.62-.17,5.7-.11,11.39-.37,17.08-.27a76.53,76.53,0,0,1,10.78,1c17.66,2.84,35.3,5.79,53,8.68a13.2,13.2,0,0,0,2,0l1-1.26-47.17-44.56.41-.24-56.17.77L200.1,415.4Z"/><path class="cls-6" d="M214.3,125.44c40.38,7.22,80.55,6.53,121.29.17-4.22-11-8.42-21.06-12-31.38-4.05-11.64-7.09-23.65-11.53-35.12-1.66-4.32-1.25-6.51,2-9.15,12.75-10.3,25.4-20.71,38.29-31.25-4.66-.18-10-1.06-15.13-.45-10.85,1.28-21.92,2.24-32.33,5.3-20.83,6.11-41,5.87-61.94,0-12.57-3.54-26-4.07-39.07-5.65-2.69-.32-5.55.7-7.7,1l43.49,34.37Z"/><path class="cls-6" d="M442.38,242.11a137.19,137.19,0,0,0,28.44-14.91c8.18-5.61,7.83-14.28.54-20.85-9.17-8.27-20.56-12.06-32.4-16,.88,4.38,1.28,8.22,2.46,11.79,1.76,5.31-.35,8.43-5,10.18-11.21,4.18-22.27,8.95-33.77,12.11-35.89,9.86-72.61,14.27-109.77,15.19-47.84,1.17-95.31-2-141.78-14.16-12.89-3.39-25.44-8.23-37.87-13.09-7-2.75-7-3.86-5.51-11.25.65-3.23,1.07-6.49,1.59-9.74l.26-.78-.63.39c-11.6,2.81-22.53,7.18-31.71,14.94-7.39,6.24-7.41,14-.47,20.69a23.89,23.89,0,0,0,6.63,5c12.57,5.41,24.91,11.74,38,15.53,45.86,13.31,93,18.41,140.61,19.84,30.67.93,61.22-1.21,91.62-5.11C383.74,258,413.81,253.07,442.38,242.11Z"/><path class="cls-6" d="M370.36,206.39c-1.46-6.21-2.94-12.51-4.34-18.45-14.89,2.26-28.94,4.49-43,6.5-7.39,1.05-10.47-1.76-10.77-9.28-.34-8.34,2-10.66,10.82-11.79,12.86-1.66,25.68-3.65,39-5.58-1.36-7-2.58-13.16-3.81-19.47-56.11,11.15-111.72,11-167.67.29-1.19,6.24-2.32,12.13-3.54,18.54,5.13,1,9.82,2.18,14.57,2.93,9.44,1.5,18.93,2.63,28.34,4.25,5.39.93,7.44,5.45,6.4,12.77-.73,5.2-4.09,8-9.34,7.41-5.53-.59-11.05-1.23-16.54-2.12-9.22-1.49-18.41-3.2-28.07-4.89-1.38,6.52-2.68,12.71-4,18.8C209.11,218.42,340.13,218.5,370.36,206.39Z"/><path class="cls-8" d="M474.22,269.79c3-.81,5.79-1.44,8.5-1.94,2-.57,4.08-1.15,6.11-1.76,16.53-4.91,32.73-11.16,46-22.6,16.8-14.49,18.83-27.58,1.29-42.36a93.22,93.22,0,0,0-17-11c-25.28-13.18-52.92-18.72-80.55-24.15-3.31-.66-4.88-1.89-5.74-5.27q-15.64-61.08-31.71-122c-1.62-6.09-3.61-12.86-7.6-17.41-13.14-15-29.45-24-50.25-20.42-14.53,2.53-29,5.63-43.34,9-15.27,3.61-30.25,5-45.83,1a502.77,502.77,0,0,0-50-10.17C180.08-3,154.52,13.34,148.82,35.32q-15.94,61.53-31.37,123.22c-1.15,4.6-3.13,6.71-8,7.57C85,170.47,60.8,176.2,37.82,186,26.43,190.92,15.47,196.63,7,206c-8.86,9.75-9.54,21.32-.5,30.91a84,84,0,0,0,20,15.54c24.29,13.53,51,20,78.06,25.22a12.5,12.5,0,0,1,4.66,1.66C221.27,301.5,351.69,303.3,474.22,269.79ZM203.88,17.9C217,19.48,230.38,20,243,23.55c20.91,5.88,41.11,6.12,61.94,0,10.41-3.06,21.48-4,32.33-5.3,5.14-.61,10.47.27,15.13.45C339.46,29.25,326.81,39.66,314.06,50c-3.26,2.64-3.67,4.83-2,9.15,4.44,11.47,7.48,23.48,11.53,35.12,3.59,10.32,7.79,20.43,12,31.38-40.74,6.36-80.91,7-121.29-.17l25.37-72.15L196.18,18.92C198.33,18.6,201.19,17.58,203.88,17.9ZM182.41,187.5c9.66,1.69,18.85,3.4,28.07,4.89,5.49.89,11,1.53,16.54,2.12,5.25.55,8.61-2.21,9.34-7.41,1-7.32-1-11.84-6.4-12.77-9.41-1.62-18.9-2.75-28.34-4.25-4.75-.75-9.44-1.88-14.57-2.93,1.22-6.41,2.35-12.3,3.54-18.54,55.95,10.69,111.56,10.86,167.67-.29,1.23,6.31,2.45,12.51,3.81,19.47-13.35,1.93-26.17,3.92-39,5.58-8.8,1.13-11.16,3.45-10.82,11.79.3,7.52,3.38,10.33,10.77,9.28,14.09-2,28.14-4.24,43-6.5,1.4,5.94,2.88,12.24,4.34,18.45-30.23,12.11-161.25,12-191.92-.09C179.73,200.21,181,194,182.41,187.5ZM261.94,267c-47.59-1.43-94.75-6.53-140.61-19.84-13.07-3.79-25.41-10.12-38-15.53a23.89,23.89,0,0,1-6.63-5c-6.94-6.69-6.92-14.45.47-20.69,9.18-7.76,20.11-12.13,31.71-14.94l.63-.39-.26.78c-.52,3.25-.94,6.51-1.59,9.74-1.48,7.39-1.54,8.5,5.51,11.25,12.43,4.86,25,9.7,37.87,13.09,46.47,12.2,93.94,15.33,141.78,14.16,37.16-.92,73.88-5.33,109.77-15.19,11.5-3.16,22.56-7.93,33.77-12.11,4.69-1.75,6.8-4.87,5-10.18-1.18-3.57-1.58-7.41-2.46-11.79,11.84,4,23.23,7.75,32.4,16,7.29,6.57,7.64,15.24-.54,20.85a137.19,137.19,0,0,1-28.44,14.91c-28.57,11-58.64,15.86-88.82,19.74C323.16,265.75,292.61,267.89,261.94,267Z"/><path class="cls-6" d="M268.88,356.46c3.46,3.17,7.64,3.3,11.21.19,5.23-4.57,9.11-9.33,8.08-17.3-1-7.52-.18-15.26-.17-22.91V300.8l-25.94-2.12c0,14,.61,27.56-.24,41C261.36,347.05,264,352,268.88,356.46Z"/><path class="cls-6" d="M187.28,338.33c8.26,8.17,8.18,8.14,3.61,19.06-6.59,15.7-16.1,30.67-12.71,49,.09.51-.14,1.11,0,1.55,1.15,2.75,1.71,6.16,3.69,8.09,20,19.4,40.13,38.57,60.26,57.78,1.8,1.72,3.7,3.33,6.15,5.53,0-5.58.27-10.07-.06-14.53-.85-11.72.57-22.79,7.76-32.59,1.32-1.79,1.77-4.22,3.12-6,1.07-1.39,2.86-3,4.4-3.09,7.12-.34,14.27-.31,21.39-.07a6.33,6.33,0,0,1,4.49,2.4C300.89,444,300.85,444,301.1,465.74c0,3.31-.07,6.61,0,9.92a30.39,30.39,0,0,0,.38,3.19C321.1,460,340.1,441.12,360,423.17c8.14-7.36,11.87-14.87,11.2-26-.52-8.48-1.18-16.41-5.25-24-3.36-6.27-5.69-13.09-9.07-19.34-2.8-5.16-1.72-8.52,2.32-12.54,9.61-9.57,18.69-19.67,27.94-29.59,1.34-1.44,2.45-3.09,4.17-5.28a22.86,22.86,0,0,0-2.45.34c-23.06,7.08-46.14,14.13-69.14,21.42-1.32.41-2.81,2.79-2.86,4.3-.31,8.17-.34,16.36-.16,24.53.09,3.91-1,6.58-4.76,8.22-3,1.32-5.84,3.1-9.37,5.05l-56.17.77.17-.17c-3.46-2.05-6-4-8.84-5.13-3.92-1.52-4.94-4.15-4.86-8,.18-8.35,0-16.71.14-25.06,0-2.88-.64-4.14-3.74-4.91q-24.5-6.14-48.84-12.91c-7.45-2.07-14.73-4.79-22.09-7.22a23.67,23.67,0,0,0,5.26,7.16C171.43,322.69,179.37,330.49,187.28,338.33Z"/><path class="cls-6" d="M264,695.33h20.16v-83.4H264Z"/><path class="cls-6" d="M374,454.08c-1.6,1.33-3.31,2.54-4.76,4q-18.76,18.75-37.42,37.6c-6.55,6.66-12.89,13.52-19.32,20.28L307.37,521l-3,3.18c-2.19,2.09-4.38,4.18-6.72,6.43l5.57,5.43c.84.87,1.67,1.75,2.51,2.63,3.54,3.8,7.08,7.62,10.64,11.4,1.91,2,1.89,3.61-.29,5.66-5.83,5.46-11.4,11.21-17.12,16.79-3.21,3.12-6.53,6.13-9.8,9.18a6.91,6.91,0,0,1,.41-4.55c1.74-3.9-.18-5-3.6-6.73-9.4-4.63-18.06-2.4-27,1.32L260.71,582,259,583.4c-8.3-8.81-16.43-17.77-25-26.35-3.55-3.57-3.43-5.91.21-9.25,5.84-5.37,11.25-11.21,17.08-17.1-30.09-30.83-59.91-60.8-90.3-89.82q37.57,126.95,75.23,254.21h10.78a25,25,0,0,0,.39-3.15c.06-28.7,0-57.41.23-86.11a14.94,14.94,0,0,1,2.54-7.43c6.82-10.66,16.19-16.1,29.24-13.55,1.5.29,3.16-.17,4.67.11s3.17.71,4.1,1.71c4,4.32,7.94,8.76,11.59,13.4a9,9,0,0,1,1.52,5.24c0,28.53-.08,57.06-.14,85.6,0,1.33.16,2.67.27,4.19h11.78c.23-.69.44-1.32.63-2q19.67-67,39.29-134c6.12-21,12-42.07,18-63.11l10.47-35.51,6.6-20.27-1-.45Z"/><path class="cls-8" d="M112.41,284.6c5.27,20.53,11.14,40.9,16.79,61.33,2.18,7.87,2.17,7.86,10.19,8.08,1.32,0,2.64.27,4.24.43,1.12,14.91,2.33,29.47,3.17,44.05.09,1.68-1.49,4.1-3,5.13Q77.18,448.53,10.31,493.08c-4.15,2.75-4.28,5.18-2.93,9.3a301,301,0,0,0,29.21,63.3c31.58,51.84,72.22,94.75,125.27,125,31,17.7,64.22,29.13,100.07,31.71,38.86,2.8,75.15-7,109.92-23.44,22.28-10.53,42.32-24.6,61.46-40l19.91-18.63,1.68-1.63,1.06-.88c9.88-11.38,19.86-22.68,29.6-34.19,3.45-4.07,6.39-8.59,9.44-13,16.16-23.42,30.25-48,40.19-74.74,1.21-3.24,2.87-6.3,4.32-9.45a13.18,13.18,0,0,1,.88-3c2.8-5,.75-7.8-3.7-10.73-23.22-15.3-46.24-30.92-69.32-46.43q-31.83-21.37-63.61-42.81c-1.39-.94-3.21-2.9-3.06-4.18,1.77-15,3.89-29.92,5.95-45.07l10.2-.45c.45-1.33.95-2.61,1.31-3.92,6.14-22.05,12.4-44.07,18.26-66.19,1-3.64,2.58-4.94,6-5.76,13.46-3.25,27-6.33,40.31-10.06-2.71.5-5.53,1.13-8.5,1.94-122.53,33.51-252.95,31.71-365,9.55C110.69,280.36,111.73,281.94,112.41,284.6ZM284.16,695.33H264v-83.4h20.16Zm97.49-234.82L371.18,496c-6,21-11.89,42.11-18,63.11q-19.55,67-39.29,134c-.19.64-.4,1.27-.63,2H301.47c-.11-1.52-.28-2.86-.27-4.19.06-28.54.16-57.07.14-85.6a9,9,0,0,0-1.52-5.24c-3.65-4.64-7.56-9.08-11.59-13.4-.93-1-2.66-1.43-4.1-1.71s-3.17.18-4.67-.11c-13-2.55-22.42,2.89-29.24,13.55a14.94,14.94,0,0,0-2.54,7.43c-.21,28.7-.17,57.41-.23,86.11a25,25,0,0,1-.39,3.15H236.28q-37.71-127.44-75.23-254.21c30.39,29,60.21,59,90.3,89.82-5.83,5.89-11.24,11.73-17.08,17.1-3.64,3.34-3.76,5.68-.21,9.25,8.53,8.58,16.66,17.54,25,26.35l1.69-1.39L259,571.77c9-3.72,17.62-5.95,27-1.32,3.42,1.68,5.34,2.83,3.6,6.73a6.91,6.91,0,0,0-.41,4.55c3.27-3.05,6.59-6.06,9.8-9.18,5.72-5.58,11.29-11.33,17.12-16.79,2.18-2,2.2-3.64.29-5.66-3.56-3.78-7.1-7.6-10.64-11.4-.84-.88-1.67-1.76-2.51-2.63l-5.57-5.43c2.34-2.25,4.53-4.34,6.72-6.43l3-3.18,5.12-5.07c6.43-6.76,12.77-13.62,19.32-20.28q18.6-18.9,37.42-37.6c1.45-1.46,3.16-2.67,4.76-4l13.27-14.29,1,.45ZM261.82,339.71c.85-13.47.24-27,.24-41L288,300.8v15.64c0,7.65-.79,15.39.17,22.91,1,8-2.85,12.73-8.08,17.3-3.57,3.11-7.75,3-11.21-.19C264,352,261.36,347.05,261.82,339.71Zm-81.44-24.82q24.33,6.76,48.84,12.91c3.1.77,3.79,2,3.74,4.91-.17,8.35,0,16.71-.14,25.06-.08,3.86.94,6.49,4.86,8,2.86,1.1,5.38,3.08,8.84,5.13l-.17.17,56.17-.77c3.53-1.95,6.36-3.73,9.37-5.05,3.75-1.64,4.85-4.31,4.76-8.22-.18-8.17-.15-16.36.16-24.53.05-1.51,1.54-3.89,2.86-4.3,23-7.29,46.08-14.34,69.14-21.42a22.86,22.86,0,0,1,2.45-.34c-1.72,2.19-2.83,3.84-4.17,5.28-9.25,9.92-18.33,20-27.94,29.59-4,4-5.12,7.38-2.32,12.54,3.38,6.25,5.71,13.07,9.07,19.34,4.07,7.6,4.73,15.53,5.25,24,.67,11.09-3.06,18.6-11.2,26C340.1,441.12,321.1,460,301.44,478.85a30.39,30.39,0,0,1-.38-3.19c0-3.31.07-6.61,0-9.92-.25-21.77-.21-21.79-11.67-40.28a6.33,6.33,0,0,0-4.49-2.4c-7.12-.24-14.27-.27-21.39.07-1.54.07-3.33,1.7-4.4,3.09-1.35,1.75-1.8,4.18-3.12,6-7.19,9.8-8.61,20.87-7.76,32.59.33,4.46.06,9,.06,14.53-2.45-2.2-4.35-3.81-6.15-5.53-20.13-19.21-40.31-38.38-60.26-57.78-2-1.93-2.54-5.34-3.69-8.09-.19-.44,0-1,0-1.55-3.39-18.3,6.12-33.27,12.71-49,4.57-10.92,4.65-10.89-3.61-19.06-7.91-7.84-15.85-15.64-23.73-23.5a23.67,23.67,0,0,1-5.26-7.16C165.65,310.1,172.93,312.82,180.38,314.89Z"/><text class="cls-9" transform="translate(754.92 669.76)">T<tspan class="cls-10" x="269.02" y="0">he</tspan></text><text class="cls-11" transform="translate(1689.41 687.68)"><tspan class="cls-12">G</tspan><tspan class="cls-13" x="297.66" y="0">o</tspan><tspan x="557.13" y="0">d</tspan><tspan class="cls-14" x="805.35" y="0">F</tspan><tspan class="cls-15" x="1038.92" y="0">u</tspan><tspan x="1312.37" y="0">n</tspan><tspan class="cls-16" x="1588.21" y="0">d</tspan><tspan class="cls-12" x="1831.31" y="0">e</tspan><tspan class="cls-17" x="2084.31" y="0">d</tspan></text></svg>