<svg id="Layer_1" data-name="Layer 1" xmlns="http://www.w3.org/2000/svg" viewBox="0 0 96 96"><defs><style>.cls-1{fill:#e5e5dc;}.cls-2{fill:#e1dfd2;}.cls-3{fill:#e4e7e7;}.cls-4{fill:#e0ded1;}.cls-5{fill:#e2e2df;}.cls-6{fill:none;}.cls-7{fill:#d95613;}.cls-8{fill:#212121;}</style></defs><path class="cls-1" d="M83,67.22,82.91,67Z"/><path class="cls-2" d="M53,68.19l.3.51c-.35.09-.55.61-1,.16Z"/><path class="cls-3" d="M71.62,84.23l.13.31-.35-.09Z"/><path class="cls-4" d="M26.4,25.72l.08,0a.42.42,0,0,1,0,.1Z"/><path class="cls-5" d="M73.36,84l.54-.55Z"/><path class="cls-5" d="M72.88,83.85l-.06.09a.31.31,0,0,1-.07-.09s0,0,0,0Z"/><path class="cls-6" d="M47.31,47.35a1,1,0,0,0,1.46,0,2.42,2.42,0,0,0,1.06-2.26,22.92,22.92,0,0,1,0-3v-2l-3.39-.27c0,1.83.08,3.6,0,5.36A2.51,2.51,0,0,0,47.31,47.35Z"/><path class="cls-6" d="M46.67,91.64H49.3V80.74H46.67Z"/><path class="cls-6" d="M61,60.11a7.75,7.75,0,0,0-.62.52c-1.63,1.63-3.27,3.27-4.89,4.91-.86.87-1.68,1.77-2.53,2.65l-.67.67-.39.41-.88.84.73.71.33.35,1.39,1.49c.25.26.25.47,0,.74-.76.71-1.49,1.46-2.23,2.19-.42.41-.86.8-1.28,1.2a.89.89,0,0,1,0-.6c.23-.5,0-.65-.47-.87a4,4,0,0,0-3.53.17l.23,1.34L46,77c-1.09-1.15-2.15-2.32-3.27-3.45-.46-.46-.44-.77,0-1.2.76-.71,1.47-1.47,2.23-2.24-3.93-4-7.83-8-11.8-11.74Q38.13,75,43,91.61h1.41a3.19,3.19,0,0,0,0-.42c0-3.75,0-7.5,0-11.25a2,2,0,0,1,.34-1,3.45,3.45,0,0,1,3.82-1.77c.19,0,.41,0,.61,0a1,1,0,0,1,.53.23c.53.56,1,1.14,1.52,1.75a1.14,1.14,0,0,1,.2.68q0,5.59,0,11.19c0,.17,0,.35,0,.55H53.1l.09-.26q2.56-8.76,5.13-17.51c.8-2.75,1.57-5.5,2.36-8.25L62,61l.87-2.65-.13-.06Z"/><path class="cls-6" d="M58.37,35A49,49,0,0,0,70,32.4a18.07,18.07,0,0,0,3.72-1.95,1.6,1.6,0,0,0,.07-2.72,11.31,11.31,0,0,0-4.24-2.09,13.75,13.75,0,0,0,.33,1.54,1,1,0,0,1-.66,1.33c-1.47.54-2.91,1.17-4.42,1.58a58.88,58.88,0,0,1-14.34,2,65.63,65.63,0,0,1-18.53-1.85A43.18,43.18,0,0,1,27,28.51C26,28.15,26,28,26.24,27c.08-.42.14-.85.2-1.27l0-.1-.08,0a9.93,9.93,0,0,0-4.15,2,1.66,1.66,0,0,0-.06,2.71,3,3,0,0,0,.87.65,43.39,43.39,0,0,0,5,2A73.59,73.59,0,0,0,46.4,35.65,76,76,0,0,0,58.37,35Z"/><path class="cls-6" d="M40.17,17.16a47.64,47.64,0,0,0,15.85,0c-.55-1.43-1.1-2.76-1.57-4.1-.53-1.53-.92-3.09-1.5-4.59-.22-.57-.17-.85.26-1.2,1.67-1.35,3.32-2.71,5-4.08a11.6,11.6,0,0,0-2-.06A24.88,24.88,0,0,0,52,3.84a14.19,14.19,0,0,1-8.09,0,34.76,34.76,0,0,0-5.11-.74,3.92,3.92,0,0,0-1,.13l5.69,4.5Z"/><path class="cls-6" d="M60.57,27.73c-.19-.81-.39-1.63-.57-2.41-1.94.3-3.78.59-5.62.85-1,.14-1.37-.23-1.41-1.21s.26-1.39,1.41-1.54c1.68-.22,3.36-.48,5.1-.73-.17-.91-.33-1.72-.49-2.55a56.54,56.54,0,0,1-21.92,0l-.46,2.43c.67.13,1.28.28,1.9.38,1.24.2,2.48.34,3.71.55.7.13,1,.72.84,1.67a1,1,0,0,1-1.23,1q-1.08-.11-2.16-.27L36,25.27l-.51,2.45C39.49,29.31,56.62,29.32,60.57,27.73Z"/><path class="cls-7" d="M38.46,55.31c1.07-.14,2.14-.25,3.2-.45,1.45-.26,2.88-.61,4.33-.9a6.14,6.14,0,0,1,.86,0c.75,0,1.49,0,2.24,0a9.34,9.34,0,0,1,1.4.13c2.31.37,4.62.76,6.92,1.14h.27l.13-.17-6.16-5.82.05,0-7.34.1-6,5.79Z"/><path class="cls-6" d="M40.17,17.16a47.64,47.64,0,0,0,15.85,0c-.55-1.43-1.1-2.76-1.57-4.1-.53-1.53-.92-3.09-1.5-4.59-.22-.57-.17-.85.26-1.2,1.67-1.35,3.32-2.71,5-4.08a11.6,11.6,0,0,0-2-.06A24.88,24.88,0,0,0,52,3.84a14.19,14.19,0,0,1-8.09,0,34.76,34.76,0,0,0-5.11-.74,3.92,3.92,0,0,0-1,.13l5.69,4.5Z"/><path class="cls-6" d="M70,32.4a18.07,18.07,0,0,0,3.72-1.95,1.6,1.6,0,0,0,.07-2.72,11.31,11.31,0,0,0-4.24-2.09,13.75,13.75,0,0,0,.33,1.54,1,1,0,0,1-.66,1.33c-1.47.54-2.91,1.17-4.42,1.58a58.88,58.88,0,0,1-14.34,2,65.63,65.63,0,0,1-18.53-1.85A43.18,43.18,0,0,1,27,28.51C26,28.15,26,28,26.24,27c.08-.42.14-.85.2-1.27l0-.1-.08,0a9.93,9.93,0,0,0-4.15,2,1.66,1.66,0,0,0-.06,2.71,3,3,0,0,0,.87.65,43.39,43.39,0,0,0,5,2A73.59,73.59,0,0,0,46.4,35.65a76,76,0,0,0,12-.67A49,49,0,0,0,70,32.4Z"/><path class="cls-6" d="M60.57,27.73c-.19-.81-.39-1.63-.57-2.41-1.94.3-3.78.59-5.62.85-1,.14-1.37-.23-1.41-1.21s.26-1.39,1.41-1.54c1.68-.22,3.36-.48,5.1-.73-.17-.91-.33-1.72-.49-2.55a56.54,56.54,0,0,1-21.92,0l-.46,2.43c.67.13,1.28.28,1.9.38,1.24.2,2.48.34,3.71.55.7.13,1,.72.84,1.67a1,1,0,0,1-1.23,1q-1.08-.11-2.16-.27L36,25.27l-.51,2.45C39.49,29.31,56.62,29.32,60.57,27.73Z"/><path class="cls-8" d="M74.14,36a10.79,10.79,0,0,1,1.11-.25l.8-.23a15.74,15.74,0,0,0,6-3c2.2-1.89,2.47-3.6.17-5.53A12.11,12.11,0,0,0,80,25.6c-3.3-1.72-6.91-2.44-10.52-3.15a.83.83,0,0,1-.76-.69q-2-8-4.14-16a5.72,5.72,0,0,0-1-2.28C61.88,1.58,59.75.39,57,.86c-1.9.33-3.79.74-5.66,1.18a12.27,12.27,0,0,1-6,.14A63.13,63.13,0,0,0,38.84.85a6.66,6.66,0,0,0-7.23,4.53q-2.09,8-4.1,16.1a1.13,1.13,0,0,1-1,1,42.26,42.26,0,0,0-9.36,2.61,11.18,11.18,0,0,0-4,2.6,2.77,2.77,0,0,0-.06,4,11.21,11.21,0,0,0,2.61,2,34.13,34.13,0,0,0,10.2,3.29,1.62,1.62,0,0,1,.61.22C41.08,40.17,58.13,40.4,74.14,36ZM38.81,3.1a34.76,34.76,0,0,1,5.11.74,14.19,14.19,0,0,0,8.09,0,24.88,24.88,0,0,1,4.23-.69,11.6,11.6,0,0,1,2,.06c-1.68,1.37-3.33,2.73-5,4.08-.43.35-.48.63-.26,1.2.58,1.5,1,3.06,1.5,4.59.47,1.34,1,2.67,1.57,4.1a47.64,47.64,0,0,1-15.85,0l3.32-9.43L37.8,3.23A3.92,3.92,0,0,1,38.81,3.1ZM36,25.27l3.67.64q1.08.16,2.16.27a1,1,0,0,0,1.23-1c.13-.95-.14-1.54-.84-1.67-1.23-.21-2.47-.35-3.71-.55-.62-.1-1.23-.25-1.9-.38l.46-2.43a56.54,56.54,0,0,0,21.92,0c.16.83.32,1.64.49,2.55-1.74.25-3.42.51-5.1.73-1.15.15-1.45.45-1.41,1.54s.44,1.35,1.41,1.21c1.84-.26,3.68-.55,5.62-.85.18.78.38,1.6.57,2.41-4,1.59-21.08,1.58-25.08,0ZM46.4,35.65A73.59,73.59,0,0,1,28,33.06a43.39,43.39,0,0,1-5-2,3,3,0,0,1-.87-.65,1.66,1.66,0,0,1,.06-2.71,9.93,9.93,0,0,1,4.15-2l.08,0,0,.1c-.06.42-.12.85-.2,1.27-.2,1-.2,1.11.72,1.47a43.18,43.18,0,0,0,4.95,1.71,65.63,65.63,0,0,0,18.53,1.85,58.88,58.88,0,0,0,14.34-2c1.51-.41,3-1,4.42-1.58a1,1,0,0,0,.66-1.33,13.75,13.75,0,0,1-.33-1.54,11.31,11.31,0,0,1,4.24,2.09,1.6,1.6,0,0,1-.07,2.72A18.07,18.07,0,0,1,70,32.4,49,49,0,0,1,58.37,35,76,76,0,0,1,46.4,35.65Z"/><path class="cls-6" d="M47.31,47.35a1,1,0,0,0,1.46,0,2.42,2.42,0,0,0,1.06-2.26,22.92,22.92,0,0,1,0-3v-2l-3.39-.27c0,1.83.08,3.6,0,5.36A2.51,2.51,0,0,0,47.31,47.35Z"/><path class="cls-6" d="M36.64,45c1.08,1.07,1.07,1.06.47,2.49-.86,2.05-2.1,4-1.66,6.4,0,.07,0,.14,0,.2a3.12,3.12,0,0,0,.48,1.06c2.61,2.54,5.24,5,7.88,7.55.23.23.48.44.8.72,0-.72,0-1.31,0-1.89a6.12,6.12,0,0,1,1-4.26c.17-.24.23-.56.4-.78a1,1,0,0,1,.58-.41c.93,0,1.86,0,2.79,0a.81.81,0,0,1,.59.32c1.5,2.41,1.49,2.42,1.53,5.26,0,.43,0,.86,0,1.3a3.05,3.05,0,0,0,.05.41c2.57-2.46,5-4.93,7.65-7.27a3.9,3.9,0,0,0,1.46-3.4A7.19,7.19,0,0,0,60,49.54c-.43-.82-.74-1.72-1.18-2.53a1.19,1.19,0,0,1,.3-1.64c1.26-1.25,2.45-2.57,3.65-3.87a8.3,8.3,0,0,0,.55-.69,3.12,3.12,0,0,0-.32,0c-3,.92-6,1.84-9,2.8a.73.73,0,0,0-.37.56c0,1.07,0,2.14,0,3.2a1,1,0,0,1-.62,1.08,12.73,12.73,0,0,0-1.23.66l-7.34.1,0,0a8.16,8.16,0,0,0-1.15-.67.94.94,0,0,1-.64-1c0-1.09,0-2.18,0-3.28,0-.37-.08-.54-.49-.64q-3.19-.8-6.38-1.68c-1-.28-1.93-.63-2.89-1a3.18,3.18,0,0,0,.69.94Z"/><path class="cls-6" d="M46.67,91.64H49.3V80.74H46.67Z"/><path class="cls-6" d="M61,60.11a7.75,7.75,0,0,0-.62.52c-1.63,1.63-3.27,3.27-4.89,4.91-.86.87-1.68,1.77-2.53,2.65l-.67.67-.39.41-.88.84.73.71.33.35,1.39,1.49c.25.26.25.47,0,.74-.76.71-1.49,1.46-2.23,2.19-.42.41-.86.8-1.28,1.2a.89.89,0,0,1,0-.6c.23-.5,0-.65-.47-.87a4,4,0,0,0-3.53.17l.23,1.34L46,77c-1.09-1.15-2.15-2.32-3.27-3.45-.46-.46-.44-.77,0-1.2.76-.71,1.47-1.47,2.23-2.24-3.93-4-7.83-8-11.8-11.74Q38.13,75,43,91.61h1.41a3.19,3.19,0,0,0,0-.42c0-3.75,0-7.5,0-11.25a2,2,0,0,1,.34-1,3.45,3.45,0,0,1,3.82-1.77c.19,0,.41,0,.61,0a1,1,0,0,1,.53.23c.53.56,1,1.14,1.52,1.75a1.14,1.14,0,0,1,.2.68q0,5.59,0,11.19c0,.17,0,.35,0,.55H53.1l.09-.26q2.56-8.76,5.13-17.51c.8-2.75,1.57-5.5,2.36-8.25L62,61l.87-2.65-.13-.06Z"/><path class="cls-8" d="M26.86,38c.68,2.68,1.45,5.34,2.19,8,.28,1,.28,1,1.33,1.06.17,0,.35,0,.56,0,.14,2,.3,3.86.41,5.76a1,1,0,0,1-.39.67Q22.24,59.38,13.51,65.2a.87.87,0,0,0-.38,1.22A39.27,39.27,0,0,0,17,74.69,45.38,45.38,0,0,0,33.32,91,30.56,30.56,0,0,0,46.4,95.18a28.48,28.48,0,0,0,14.36-3.07,40,40,0,0,0,8-5.23l2.61-2.43.22-.22.14-.11c1.29-1.49,2.59-3,3.86-4.47A19,19,0,0,0,76.86,78a44.66,44.66,0,0,0,5.25-9.77c.16-.42.38-.82.57-1.23a1.25,1.25,0,0,1,.11-.39c.37-.66.1-1-.48-1.4-3-2-6-4-9.06-6.07q-4.17-2.79-8.32-5.6c-.18-.12-.42-.38-.4-.54.24-2,.51-3.91.78-5.89L66.64,47c.06-.18.13-.34.18-.51.8-2.89,1.62-5.76,2.38-8.66a.91.91,0,0,1,.78-.75c1.76-.42,3.53-.83,5.27-1.31a10.79,10.79,0,0,0-1.11.25c-16,4.38-33.06,4.15-47.71,1.25A1.08,1.08,0,0,1,26.86,38ZM49.3,91.64H46.67V80.74H49.3ZM62,61l-1.36,4.64c-.79,2.75-1.56,5.5-2.36,8.25q-2.55,8.76-5.13,17.51l-.09.26H51.56c0-.2,0-.38,0-.55q0-5.59,0-11.19a1.14,1.14,0,0,0-.2-.68c-.48-.61-1-1.19-1.52-1.75a1,1,0,0,0-.53-.23c-.2,0-.42,0-.61,0A3.45,3.45,0,0,0,44.87,79a2,2,0,0,0-.34,1c0,3.75,0,7.5,0,11.25a3.19,3.19,0,0,1,0,.42H43q-4.92-16.67-9.83-33.23c4,3.79,7.87,7.71,11.8,11.74-.76.77-1.47,1.53-2.23,2.24-.47.43-.49.74,0,1.2,1.12,1.13,2.18,2.3,3.27,3.45l.22-.18L46,75.49a4,4,0,0,1,3.53-.17c.45.22.7.37.47.87a.89.89,0,0,0,0,.6c.42-.4.86-.79,1.28-1.2.74-.73,1.47-1.48,2.23-2.19.29-.27.29-.48,0-.74l-1.39-1.49-.33-.35-.73-.71.88-.84.39-.41.67-.67c.85-.88,1.67-1.78,2.53-2.65,1.62-1.64,3.26-3.28,4.89-4.91a7.75,7.75,0,0,1,.62-.52l1.74-1.87.13.06ZM46.38,45.16c.11-1.76,0-3.53,0-5.36l3.39.27v2a22.92,22.92,0,0,0,0,3,2.42,2.42,0,0,1-1.06,2.26,1,1,0,0,1-1.46,0A2.51,2.51,0,0,1,46.38,45.16ZM35.74,41.92q3.18.88,6.38,1.68c.41.1.5.27.49.64,0,1.1,0,2.19,0,3.28a.94.94,0,0,0,.64,1,8.16,8.16,0,0,1,1.15.67l0,0,7.34-.1a12.73,12.73,0,0,1,1.23-.66,1,1,0,0,0,.62-1.08c0-1.06,0-2.13,0-3.2a.73.73,0,0,1,.37-.56c3-1,6-1.88,9-2.8a3.12,3.12,0,0,1,.32,0,8.3,8.3,0,0,1-.55.69c-1.2,1.3-2.39,2.62-3.65,3.87A1.19,1.19,0,0,0,58.8,47c.44.81.75,1.71,1.18,2.53a7.19,7.19,0,0,1,.69,3.13,3.9,3.9,0,0,1-1.46,3.4c-2.6,2.34-5.08,4.81-7.65,7.27a3.05,3.05,0,0,1-.05-.41c0-.44,0-.87,0-1.3,0-2.84,0-2.85-1.53-5.26a.81.81,0,0,0-.59-.32c-.93,0-1.86,0-2.79,0a1,1,0,0,0-.58.41c-.17.22-.23.54-.4.78a6.12,6.12,0,0,0-1,4.26c0,.58,0,1.17,0,1.89-.32-.28-.57-.49-.8-.72-2.64-2.51-5.27-5-7.88-7.55a3.12,3.12,0,0,1-.48-1.06c0-.06,0-.13,0-.2-.44-2.39.8-4.35,1.66-6.4.6-1.43.61-1.42-.47-2.49l-3.1-3.07a3.18,3.18,0,0,1-.69-.94C33.81,41.29,34.76,41.64,35.74,41.92Z"/></svg>