<svg id="Layer_1" data-name="Layer 1" xmlns="http://www.w3.org/2000/svg" viewBox="0 0 700 700"><defs><style>.cls-1{fill:#fff;}.cls-2{fill:#d95613;}</style></defs><path class="cls-1" d="M202.16,282.14c4.86,18.95,10.28,37.75,15.49,56.61,2,7.27,2,7.26,9.41,7.47,1.22,0,2.44.24,3.91.39,1,13.76,2.16,27.2,2.93,40.66.09,1.55-1.38,3.79-2.78,4.74q-61.5,41.46-123.22,82.58c-3.83,2.54-4,4.79-2.7,8.59a278.42,278.42,0,0,0,27,58.43C161.32,589.47,198.83,629.07,247.8,657c28.63,16.35,59.29,26.89,92.38,29.28,35.87,2.58,69.37-6.47,101.47-21.64,20.57-9.72,39.07-22.71,56.73-36.95l18.38-17.2,1.55-1.5c.32-.28.65-.55,1-.82,9.12-10.5,18.34-20.94,27.33-31.56,3.18-3.76,5.9-7.93,8.7-12,14.93-21.62,27.93-44.27,37.11-69,1.11-3,2.65-5.82,4-8.72a13.12,13.12,0,0,1,.8-2.76c2.6-4.63.7-7.19-3.4-9.9-21.44-14.12-42.69-28.54-64-42.86q-29.39-19.72-58.72-39.52c-1.28-.87-3-2.68-2.82-3.86,1.64-13.83,3.59-27.62,5.49-41.6l9.42-.42c.41-1.23.87-2.4,1.21-3.61,5.67-20.36,11.44-40.68,16.86-61.11.89-3.35,2.37-4.56,5.52-5.32,12.43-3,24.91-5.84,37.21-9.28-2.5.46-5.1,1-7.85,1.79-113.1,30.94-233.49,29.27-337,8.82C200.57,278.23,201.53,279.69,202.16,282.14ZM360.7,661.29H342.09v-77H360.7Zm90-216.76L441,477.3c-5.54,19.42-11,38.87-16.63,58.26q-18,61.88-36.26,123.71c-.18.59-.38,1.17-.58,1.81H376.67c-.09-1.4-.25-2.64-.24-3.87.05-26.34.15-52.68.13-79a8.28,8.28,0,0,0-1.41-4.83c-3.37-4.28-7-8.39-10.69-12.38a7.24,7.24,0,0,0-3.79-1.57c-1.39-.26-2.92.17-4.31-.1-12-2.35-20.7,2.67-27,12.5a13.76,13.76,0,0,0-2.34,6.86c-.2,26.5-.17,53-.22,79.49a22.63,22.63,0,0,1-.36,2.91H316.5q-34.81-117.63-69.44-234.66c28,26.79,55.57,54.45,83.35,82.91C325,514.75,320,520.15,314.64,525.1c-3.36,3.09-3.47,5.25-.19,8.55,7.88,7.91,15.38,16.19,23,24.32l1.56-1.29c-.53-3.11-1.07-6.22-1.63-9.44,8.28-3.44,16.28-5.5,24.95-1.23,3.15,1.56,4.93,2.61,3.32,6.21a6.51,6.51,0,0,0-.38,4.21c3-2.82,6.09-5.6,9.05-8.48,5.29-5.15,10.42-10.46,15.8-15.5,2-1.89,2-3.35.27-5.22-3.29-3.49-6.55-7-9.82-10.53l-2.31-2.43-5.15-5,6.2-5.93,2.77-2.93,4.73-4.69c5.94-6.24,11.79-12.57,17.83-18.71q17.18-17.46,34.54-34.72c1.35-1.35,2.93-2.46,4.4-3.69l12.25-13.19.91.42ZM340.08,333c.78-12.44.22-25,.22-37.88l23.94,2c0,4.91,0,9.67,0,14.43,0,7.06-.73,14.21.16,21.15,1,7.36-2.63,11.76-7.46,16-3.29,2.87-7.15,2.75-10.35-.17C342,344.31,339.65,339.79,340.08,333ZM264.9,310.1Q287.36,316.35,310,322c2.86.71,3.5,1.88,3.45,4.53-.15,7.71,0,15.42-.12,23.13-.08,3.57.86,6,4.48,7.4,2.64,1,5,2.84,8.17,4.74l-.17.15,51.86-.71c3.26-1.8,5.87-3.44,8.65-4.66,3.46-1.51,4.47-4,4.39-7.59-.17-7.54-.14-15.1.15-22.64.05-1.4,1.42-3.59,2.64-4,21.23-6.73,42.53-13.23,63.83-19.78a22.58,22.58,0,0,1,2.25-.31c-1.58,2-2.61,3.55-3.85,4.88-8.54,9.16-16.92,18.48-25.78,27.31-3.74,3.72-4.73,6.81-2.15,11.57,3.12,5.77,5.27,12.07,8.37,17.86,3.76,7,4.37,14.34,4.85,22.16.62,10.24-2.82,17.17-10.34,24-18.33,16.58-35.86,34-54,51.41a28.16,28.16,0,0,1-.35-2.95c0-3.05.07-6.1,0-9.15-.23-20.1-.19-20.12-10.77-37.19a5.82,5.82,0,0,0-4.14-2.21c-6.58-.22-13.17-.25-19.75.06-1.42.07-3.07,1.57-4.05,2.85-1.25,1.62-1.67,3.86-2.89,5.52-6.63,9-7.94,19.26-7.16,30.08.3,4.11.05,8.26.05,13.41-2.26-2-4-3.52-5.67-5.1-18.58-17.74-37.21-35.43-55.63-53.34-1.83-1.78-2.34-4.93-3.41-7.47-.17-.41,0-1-.05-1.43-3.12-16.9,5.66-30.71,11.74-45.21,4.22-10.07,4.29-10.05-3.33-17.59-7.3-7.23-14.63-14.44-21.91-21.69a22,22,0,0,1-4.85-6.61C251.3,305.68,258,308.19,264.9,310.1Z"/><path class="cls-1" d="M536.14,268.47c2.75-.75,5.35-1.33,7.85-1.79q2.84-.8,5.64-1.62c15.26-4.54,30.22-10.3,42.47-20.87,15.52-13.37,17.39-25.46,1.2-39.1a86.12,86.12,0,0,0-15.69-10.19c-23.33-12.17-48.85-17.29-74.35-22.3-3.06-.6-4.51-1.74-5.31-4.86q-14.43-56.39-29.27-112.66c-1.49-5.63-3.33-11.88-7-16.08-12.13-13.82-27.19-22.18-46.39-18.84-13.41,2.33-26.75,5.19-40,8.32-14.09,3.33-27.92,4.63-42.3.93A467.24,467.24,0,0,0,286.83,20c-22.2-3.35-45.81,11.71-51.07,32Q221,108.84,206.81,165.77c-1.07,4.25-2.89,6.2-7.38,7-22.61,4-44.92,9.31-66.13,18.39-10.52,4.51-20.63,9.78-28.48,18.43-8.18,9-8.81,19.68-.46,28.54a77.42,77.42,0,0,0,18.45,14.34c22.41,12.49,47.11,18.42,72.05,23.28a11.54,11.54,0,0,1,4.3,1.54C302.65,297.74,423,299.41,536.14,268.47ZM286.59,36c12.07,1.45,24.47,1.95,36.07,5.21,19.3,5.43,37.94,5.66,57.18,0,9.6-2.82,19.82-3.71,29.84-4.89,4.75-.56,9.66.25,14,.42C411.74,46.42,400.07,56,388.3,65.54c-3,2.44-3.39,4.47-1.85,8.45,4.09,10.59,6.9,21.67,10.64,32.41,3.31,9.53,7.19,18.87,11.08,29-37.61,5.87-74.69,6.51-112-.16l23.42-66.6L279.48,36.89C281.47,36.6,284.11,35.65,286.59,36ZM266.77,192.51c8.92,1.56,17.4,3.14,25.92,4.51,5.06.82,10.16,1.42,15.26,2,4.85.51,7.95-2,8.63-6.84.95-6.76-.94-10.93-5.91-11.79-8.69-1.5-17.45-2.53-26.16-3.92-4.39-.7-8.72-1.74-13.46-2.71,1.13-5.91,2.17-11.35,3.28-17.11a399.85,399.85,0,0,0,154.77-.27c1.14,5.82,2.26,11.55,3.52,18-12.32,1.78-24.16,3.62-36,5.15-8.12,1-10.3,3.19-10,10.89.28,6.94,3.12,9.53,9.94,8.56,13-1.86,26-3.91,39.73-6,1.29,5.49,2.65,11.3,4,17-27.9,11.18-148.85,11.11-177.16-.08C264.29,204.24,265.5,198.53,266.77,192.51Zm73.42,73.35c-43.93-1.32-87.47-6-129.8-18.32-12.06-3.5-23.46-9.34-35.06-14.33a22.06,22.06,0,0,1-6.12-4.61c-6.41-6.17-6.39-13.34.43-19.1,8.48-7.16,18.57-11.2,29.27-13.79l.59-.36-.25.72c-.48,3-.86,6-1.46,9-1.37,6.82-1.42,7.84,5.08,10.38,11.48,4.49,23.06,9,35,12.09,42.9,11.26,86.72,14.15,130.88,13.07,34.3-.84,68.2-4.91,101.33-14,10.61-2.92,20.83-7.32,31.18-11.18,4.33-1.61,6.27-4.49,4.65-9.39-1.09-3.31-1.46-6.85-2.28-10.89,10.93,3.66,21.45,7.16,29.91,14.78,6.73,6.07,7.06,14.07-.49,19.26a127.11,127.11,0,0,1-26.26,13.76c-26.37,10.12-54.12,14.64-82,18.22C396.7,264.74,368.5,266.71,340.19,265.86Z"/><path class="cls-2" d="M284.13,404.74c7.53-1,15.11-1.79,22.57-3.17,10.24-1.89,20.38-4.32,30.59-6.37a35.48,35.48,0,0,1,6.11-.15c5.26-.1,10.52-.34,15.77-.25a69.39,69.39,0,0,1,9.95,1c16.3,2.62,32.59,5.34,48.88,8a11.3,11.3,0,0,0,1.84,0l1-1.17-43.55-41.13.39-.22-51.86.71L283.1,402.89Z"/></svg>