<?xml version="1.0" encoding="utf-8"?>
<!-- Generator: Adobe Illustrator 26.1.0, SVG Export Plug-In . SVG Version: 6.00 Build 0)  -->
<svg version="1.1" id="Layer_1" xmlns="http://www.w3.org/2000/svg" xmlns:xlink="http://www.w3.org/1999/xlink" x="0px" y="0px"
	 viewBox="0 0 700 700" style="enable-background:new 0 0 700 700;" xml:space="preserve">
<style type="text/css">
	.st0{display:none;}
	.st1{fill:#FFFFFF;}
	.st2{display:none;fill:#212121;}
	.st3{fill:#E5E5DC;}
	.st4{fill:#E1DFD2;}
	.st5{fill:#E4E7E7;}
	.st6{fill:#E0DED1;}
	.st7{fill:#E2E2DF;}
	.st8{fill:none;}
	.st9{fill:#D95613;}
	.st10{fill:#E9E9E9;}
	.st11{fill:#212121;}
</style>
<rect class="st0" width="700" height="700"/>
<circle class="st1" cx="350" cy="350" r="350"/>
<g>
	<path class="st3" d="M567.43,469.8c-0.28-0.56-0.56-1.12-0.84-1.69C566.87,468.68,567.15,469.24,567.43,469.8z"/>
	<path class="st4" d="M381.05,475.84c0.54,0.93,1.08,1.85,1.83,3.15c-2.16,0.55-3.41,3.74-5.98,0.96
		C378.28,478.58,379.67,477.21,381.05,475.84z"/>
	<path class="st5" d="M496.52,575.36c0.27,0.63,0.55,1.27,0.82,1.9c-0.73-0.19-1.45-0.38-2.18-0.58
		C495.62,576.24,496.07,575.8,496.52,575.36z"/>
	<path class="st6" d="M215.96,212.31c0.17-0.11,0.34-0.21,0.51-0.32c-0.07,0.21-0.14,0.42-0.21,0.64
		C216.16,212.52,216.06,212.41,215.96,212.31z"/>
	<path class="st7" d="M507.32,573.95c1.13-1.13,2.26-2.26,3.38-3.38C509.58,571.7,508.45,572.82,507.32,573.95z"/>
	<path class="st7" d="M504.39,572.98c-0.14,0.18-0.27,0.36-0.41,0.54c-0.15-0.17-0.31-0.33-0.42-0.52c-0.03-0.04,0.16-0.3,0.2-0.28
		C503.97,572.77,504.18,572.88,504.39,572.98z"/>
	<g>
		<path class="st8" d="M345.69,346.51c2.8,2.57,6.2,2.67,9.09,0.15c4.24-3.7,7.39-7.56,6.56-14.02c-0.78-6.1-0.15-12.38-0.14-18.58
			c0-4.18,0-8.36,0-12.68c-7.08-0.58-13.66-1.12-21.03-1.73c0,11.35,0.49,22.35-0.2,33.28
			C339.59,338.87,341.69,342.84,345.69,346.51z"/>
		<path class="st8" d="M341.73,621.28c5.64,0,11.04,0,16.35,0c0-22.73,0-45.17,0-67.62c-5.58,0-10.77,0-16.35,0
			C341.73,576.48,341.73,598.8,341.73,621.28z"/>
		<path class="st8" d="M430.92,425.66c-1.29,1.07-2.68,2.06-3.86,3.24c-10.14,10.14-20.29,20.27-30.34,30.49
			c-5.31,5.39-10.45,10.96-15.66,16.44c-1.39,1.37-2.77,2.74-4.16,4.11c-0.81,0.86-1.62,1.72-2.43,2.58
			c-1.77,1.7-3.55,3.39-5.45,5.21c1.74,1.7,3.13,3.05,4.52,4.4c0.68,0.71,1.35,1.42,2.03,2.14c2.88,3.08,5.74,6.18,8.63,9.25
			c1.54,1.64,1.53,2.93-0.24,4.59c-4.73,4.43-9.24,9.09-13.88,13.61c-2.6,2.53-5.3,4.97-7.95,7.45c-0.33-1.61-0.11-2.7,0.34-3.7
			c1.41-3.16-0.15-4.09-2.92-5.45c-7.62-3.76-14.65-1.94-21.92,1.07c0.49,2.83,0.96,5.57,1.43,8.3c-0.46,0.38-0.92,0.75-1.37,1.13
			c-6.72-7.14-13.32-14.41-20.23-21.36c-2.88-2.9-2.79-4.79,0.16-7.5c4.74-4.35,9.12-9.09,13.85-13.87
			c-24.4-25-48.58-49.3-73.22-72.83c20.31,68.62,40.61,137.24,61,206.13c2.74,0,5.66,0,8.74,0c0.12-0.91,0.31-1.73,0.32-2.55
			c0.04-23.28,0.02-46.55,0.19-69.83c0.01-2.03,0.94-4.28,2.06-6.03c5.53-8.64,13.13-13.05,23.7-10.98
			c1.22,0.24,2.57-0.14,3.79,0.09c1.17,0.22,2.57,0.57,3.32,1.38c3.26,3.5,6.44,7.11,9.4,10.87c0.85,1.08,1.24,2.81,1.24,4.25
			c0.01,23.14-0.07,46.27-0.12,69.41c0,1.08,0.14,2.17,0.22,3.4c3.33,0,6.39,0,9.56,0c0.18-0.56,0.36-1.08,0.51-1.6
			c10.63-36.22,21.29-72.43,31.86-108.67c4.97-17.03,9.75-34.11,14.61-51.17c2.83-9.6,5.66-19.19,8.49-28.79
			c1.78-5.48,3.56-10.96,5.34-16.44c-0.27-0.12-0.53-0.25-0.8-0.37C438.09,417.93,434.5,421.8,430.92,425.66z"/>
		<path class="st8" d="M414.35,269.78c24.48-3.14,48.86-7.11,72.02-16c8.07-3.09,15.95-7.2,23.06-12.09
			c6.63-4.55,6.35-11.58,0.43-16.91c-7.43-6.7-16.67-9.77-26.27-12.99c0.72,3.55,1.04,6.66,2,9.57c1.42,4.3-0.28,6.83-4.09,8.25
			c-9.09,3.39-18.06,7.26-27.39,9.82c-29.1,8-58.88,11.58-89.01,12.32c-38.8,0.95-77.29-1.59-114.97-11.48
			c-10.45-2.74-20.62-6.67-30.71-10.61c-5.71-2.23-5.67-3.13-4.46-9.12c0.52-2.61,0.86-5.26,1.28-7.9c0.07-0.21,0.14-0.42,0.21-0.63
			c-0.17,0.11-0.34,0.21-0.51,0.32c-9.4,2.28-18.26,5.83-25.71,12.12c-5.99,5.06-6.01,11.36-0.38,16.78
			c1.61,1.55,3.37,3.19,5.38,4.05c10.19,4.39,20.2,9.52,30.79,12.59c37.19,10.79,75.43,14.93,114.02,16.09
			C364.93,274.68,389.7,272.95,414.35,269.78z"/>
		<path class="st8" d="M301.43,159.17c32.75,5.86,65.32,5.3,98.36,0.14c-3.42-8.88-6.83-17.08-9.74-25.45
			c-3.28-9.44-5.75-19.17-9.35-28.47c-1.35-3.5-1.02-5.28,1.63-7.42c10.33-8.35,20.59-16.79,31.05-25.34
			c-3.78-0.15-8.1-0.86-12.27-0.37c-8.79,1.04-17.78,1.82-26.21,4.29c-16.89,4.96-33.27,4.76-50.23-0.01
			c-10.19-2.87-21.07-3.3-31.68-4.58c-2.18-0.26-4.5,0.57-6.24,0.83c11.99,9.47,23.83,18.83,35.27,27.87
			C314.9,120.88,308.24,139.8,301.43,159.17z"/>
		<path class="st8" d="M427.98,224.81c-1.18-5.03-2.39-10.14-3.52-14.96c-12.07,1.83-23.47,3.64-34.9,5.27
			c-5.99,0.85-8.49-1.42-8.73-7.52c-0.27-6.76,1.64-8.64,8.77-9.56c10.43-1.35,20.83-2.96,31.65-4.52
			c-1.11-5.65-2.09-10.68-3.09-15.79c-45.5,9.04-90.59,8.91-135.96,0.24c-0.97,5.06-1.88,9.84-2.88,15.04
			c4.16,0.85,7.97,1.76,11.82,2.38c7.65,1.22,15.35,2.13,22.98,3.44c4.37,0.75,6.03,4.42,5.19,10.35c-0.6,4.22-3.32,6.46-7.57,6.01
			c-4.48-0.47-8.96-0.99-13.41-1.71c-7.48-1.21-14.93-2.59-22.77-3.97c-1.12,5.29-2.17,10.31-3.21,15.25
			C297.22,234.57,403.47,234.63,427.98,224.81z"/>
		<path class="st9" d="M290.82,395.92c6.61-0.91,13.27-1.57,19.83-2.78c8.99-1.66,17.9-3.79,26.87-5.59
			c1.73-0.35,3.58-0.1,5.37-0.13c4.62-0.09,9.24-0.3,13.85-0.22c2.92,0.05,5.85,0.38,8.74,0.84c14.32,2.3,28.63,4.69,42.94,7.04
			c0.53,0.09,1.08,0.01,1.62,0.01c0.28-0.34,0.57-0.68,0.85-1.03c-12.57-11.88-25.15-23.76-38.25-36.13
			c0.12-0.06,0.22-0.13,0.34-0.19l-45.55,0.62c-12.69,12.16-25.09,24.05-37.5,35.94C290.22,394.84,290.52,395.38,290.82,395.92z"/>
	</g>
</g>
<g>
	<path class="st8" d="M301.43,159.17c32.75,5.86,65.32,5.3,98.36,0.14c-3.42-8.88-6.83-17.08-9.74-25.45
		c-3.28-9.44-5.75-19.17-9.35-28.47c-1.35-3.5-1.02-5.28,1.63-7.42c10.33-8.35,20.59-16.79,31.05-25.34
		c-3.78-0.15-8.1-0.86-12.27-0.37c-8.79,1.04-17.78,1.82-26.21,4.29c-16.89,4.96-33.27,4.76-50.23-0.01
		c-10.19-2.87-21.07-3.3-31.68-4.58c-2.18-0.26-4.5,0.57-6.24,0.83c11.99,9.47,23.83,18.83,35.27,27.87
		C314.9,120.88,308.24,139.8,301.43,159.17z"/>
	<path class="st8" d="M486.37,253.78c8.07-3.09,15.95-7.2,23.06-12.09c6.63-4.55,6.35-11.58,0.43-16.91
		c-7.43-6.7-16.67-9.77-26.27-12.99c0.72,3.55,1.04,6.66,2,9.57c1.42,4.3-0.28,6.83-4.09,8.25c-9.09,3.39-18.06,7.26-27.39,9.82
		c-29.1,8-58.88,11.58-89.01,12.32c-38.8,0.95-77.29-1.59-114.97-11.48c-10.45-2.74-20.62-6.67-30.71-10.61
		c-5.71-2.23-5.67-3.13-4.46-9.12c0.52-2.61,0.86-5.26,1.28-7.9c0.07-0.21,0.14-0.42,0.21-0.63c-0.17,0.11-0.34,0.21-0.51,0.32
		c-9.4,2.28-18.26,5.83-25.71,12.12c-5.99,5.06-6.01,11.36-0.38,16.78c1.61,1.55,3.37,3.19,5.38,4.05
		c10.19,4.39,20.2,9.52,30.79,12.59c37.19,10.79,75.43,14.93,114.02,16.09c24.87,0.75,49.64-0.98,74.29-4.15
		C438.83,266.64,463.21,262.67,486.37,253.78z"/>
	<path class="st8" d="M427.98,224.81c-1.18-5.03-2.39-10.14-3.52-14.96c-12.07,1.83-23.47,3.64-34.9,5.27
		c-5.99,0.85-8.49-1.42-8.73-7.52c-0.27-6.76,1.64-8.64,8.77-9.56c10.43-1.35,20.83-2.96,31.65-4.52
		c-1.11-5.65-2.09-10.68-3.09-15.79c-45.5,9.04-90.59,8.91-135.96,0.24c-0.97,5.06-1.88,9.84-2.88,15.04
		c4.16,0.85,7.97,1.76,11.82,2.38c7.65,1.22,15.35,2.13,22.98,3.44c4.37,0.75,6.03,4.42,5.19,10.35c-0.6,4.22-3.32,6.46-7.57,6.01
		c-4.48-0.47-8.96-0.99-13.41-1.71c-7.48-1.21-14.93-2.59-22.77-3.97c-1.12,5.29-2.17,10.31-3.21,15.25
		C297.22,234.57,403.47,234.63,427.98,224.81z"/>
	<path class="st11" d="M512.19,276.23c2.41-0.66,4.7-1.17,6.9-1.57c1.65-0.46,3.31-0.94,4.95-1.43c13.4-3.99,26.54-9.05,37.31-18.33
		c13.62-11.75,15.27-22.36,1.05-34.35c-4.16-3.51-8.94-6.43-13.78-8.96c-20.5-10.69-42.91-15.18-65.31-19.58
		c-2.69-0.53-3.96-1.53-4.66-4.27c-8.46-33.02-16.96-66.03-25.71-98.97c-1.31-4.94-2.93-10.43-6.17-14.12
		c-10.65-12.14-23.88-19.48-40.74-16.55c-11.78,2.05-23.5,4.56-35.15,7.31c-12.38,2.92-24.53,4.06-37.16,0.82
		c-13.34-3.42-26.91-6.2-40.53-8.25c-19.51-2.94-40.24,10.29-44.86,28.11c-8.62,33.27-17.07,66.58-25.44,99.92
		c-0.94,3.73-2.54,5.45-6.48,6.15c-19.86,3.53-39.46,8.18-58.09,16.16c-9.24,3.96-18.12,8.59-25.02,16.19
		c-7.18,7.91-7.73,17.29-0.4,25.07c4.65,4.93,10.28,9.3,16.21,12.6c19.69,10.97,41.38,16.18,63.3,20.45
		c1.55,0.3,2.79,0.68,3.78,1.35C307.09,301.94,412.84,303.4,512.19,276.23z M292.98,71.97c10.6,1.28,21.49,1.71,31.68,4.58
		c16.96,4.77,33.34,4.97,50.23,0.01c8.44-2.48,17.42-3.26,26.21-4.29c4.17-0.49,8.49,0.22,12.27,0.37
		c-10.45,8.55-20.71,16.99-31.05,25.34c-2.65,2.14-2.98,3.92-1.63,7.42c3.6,9.3,6.06,19.04,9.35,28.47
		c2.91,8.37,6.32,16.57,9.74,25.45c-33.04,5.16-65.61,5.72-98.36-0.14c6.82-19.38,13.47-38.3,20.58-58.5
		c-11.44-9.04-23.28-18.4-35.27-27.87C288.48,72.54,290.8,71.71,292.98,71.97z M275.57,209.49c7.83,1.38,15.29,2.76,22.77,3.97
		c4.45,0.72,8.93,1.24,13.41,1.71c4.26,0.45,6.98-1.79,7.57-6.01c0.84-5.94-0.82-9.6-5.19-10.35c-7.63-1.32-15.33-2.23-22.98-3.44
		c-3.85-0.61-7.66-1.53-11.82-2.38c0.99-5.19,1.91-9.97,2.88-15.04c45.36,8.67,90.46,8.8,135.96-0.24c1,5.12,1.99,10.15,3.09,15.79
		c-10.82,1.56-21.22,3.18-31.65,4.52c-7.14,0.92-9.05,2.8-8.77,9.56c0.24,6.1,2.74,8.37,8.73,7.52c11.42-1.63,22.82-3.43,34.9-5.27
		c1.13,4.82,2.34,9.92,3.52,14.96c-24.51,9.82-130.76,9.76-155.63-0.07C273.39,219.8,274.45,214.78,275.57,209.49z M340.06,273.93
		c-38.59-1.16-76.83-5.3-114.02-16.09c-10.59-3.07-20.6-8.2-30.79-12.59c-2.01-0.86-3.76-2.5-5.38-4.05
		c-5.63-5.42-5.61-11.72,0.38-16.78c7.45-6.29,16.31-9.84,25.71-12.12c0.17-0.11,0.34-0.21,0.51-0.32
		c-0.07,0.21-0.14,0.42-0.21,0.63c-0.42,2.64-0.76,5.28-1.28,7.9c-1.2,6-1.25,6.89,4.46,9.12c10.08,3.94,20.26,7.87,30.71,10.61
		c37.68,9.89,76.18,12.44,114.97,11.48c30.13-0.74,59.91-4.32,89.01-12.32c9.33-2.56,18.3-6.43,27.39-9.82
		c3.8-1.42,5.51-3.95,4.09-8.25c-0.96-2.9-1.28-6.01-2-9.57c9.6,3.22,18.84,6.29,26.27,12.99c5.91,5.33,6.2,12.36-0.43,16.91
		c-7.11,4.89-15,9-23.06,12.09c-23.17,8.89-47.54,12.86-72.02,16C389.7,272.95,364.93,274.68,340.06,273.93z"/>
	<path class="st8" d="M345.69,346.51c2.8,2.57,6.2,2.67,9.09,0.15c4.24-3.7,7.39-7.56,6.56-14.02c-0.78-6.1-0.15-12.38-0.14-18.58
		c0-4.18,0-8.36,0-12.68c-7.08-0.58-13.66-1.12-21.03-1.73c0,11.35,0.49,22.35-0.2,33.28C339.59,338.87,341.69,342.84,345.69,346.51
		z"/>
	<path class="st8" d="M279.52,331.8c6.69,6.63,6.63,6.61,2.92,15.46c-5.34,12.74-13.06,24.87-10.31,39.71
		c0.08,0.41-0.11,0.9,0.04,1.26c0.94,2.23,1.39,5,2.99,6.56c16.18,15.73,32.54,31.27,48.86,46.85c1.46,1.39,3,2.7,4.98,4.49
		c0-4.52,0.22-8.17-0.04-11.79c-0.69-9.5,0.46-18.48,6.29-26.42c1.07-1.45,1.44-3.43,2.53-4.85c0.86-1.12,2.32-2.45,3.57-2.5
		c5.77-0.27,11.57-0.25,17.35-0.05c1.26,0.04,2.99,0.91,3.64,1.94c9.29,14.99,9.26,15.01,9.46,32.66c0.03,2.68-0.05,5.36-0.03,8.04
		c0.01,0.85,0.2,1.7,0.31,2.59c15.94-15.26,31.34-30.59,47.45-45.15c6.6-5.97,9.62-12.06,9.07-21.05
		c-0.42-6.87-0.96-13.3-4.25-19.47c-2.72-5.08-4.61-10.62-7.36-15.68c-2.27-4.18-1.39-6.9,1.89-10.17
		c7.79-7.76,15.15-15.95,22.65-23.99c1.09-1.17,1.99-2.51,3.38-4.28c-1.2,0.16-1.61,0.16-1.98,0.27
		c-18.7,5.75-37.42,11.46-56.07,17.37c-1.07,0.34-2.27,2.26-2.32,3.49c-0.25,6.62-0.27,13.26-0.13,19.89
		c0.07,3.17-0.82,5.33-3.86,6.66c-2.44,1.07-4.73,2.51-7.6,4.1l-45.55,0.62c0.05-0.05,0.1-0.09,0.14-0.14
		c-2.81-1.67-4.85-3.27-7.17-4.16c-3.18-1.23-4-3.37-3.94-6.5c0.14-6.77-0.03-13.55,0.11-20.32c0.05-2.33-0.52-3.36-3.03-3.98
		c-13.24-3.31-26.45-6.81-39.6-10.47c-6.05-1.68-11.95-3.89-17.91-5.86c1.09,2.4,2.61,4.17,4.26,5.81
		C266.67,319.12,273.11,325.45,279.52,331.8z"/>
	<path class="st8" d="M341.73,621.28c5.64,0,11.04,0,16.35,0c0-22.73,0-45.17,0-67.62c-5.58,0-10.77,0-16.35,0
		C341.73,576.48,341.73,598.8,341.73,621.28z"/>
	<path class="st8" d="M430.92,425.66c-1.29,1.07-2.68,2.06-3.86,3.24c-10.14,10.14-20.29,20.27-30.34,30.49
		c-5.31,5.39-10.45,10.96-15.66,16.44c-1.39,1.37-2.77,2.74-4.16,4.11c-0.81,0.86-1.62,1.72-2.43,2.58
		c-1.77,1.7-3.55,3.39-5.45,5.21c1.74,1.7,3.13,3.05,4.52,4.4c0.68,0.71,1.35,1.42,2.03,2.14c2.88,3.08,5.74,6.18,8.63,9.25
		c1.54,1.64,1.53,2.93-0.24,4.59c-4.73,4.43-9.24,9.09-13.88,13.61c-2.6,2.53-5.3,4.97-7.95,7.45c-0.33-1.61-0.11-2.7,0.34-3.7
		c1.41-3.16-0.15-4.09-2.92-5.45c-7.62-3.76-14.65-1.94-21.92,1.07c0.49,2.83,0.96,5.57,1.43,8.3c-0.46,0.38-0.92,0.75-1.37,1.13
		c-6.72-7.14-13.32-14.41-20.23-21.36c-2.88-2.9-2.79-4.79,0.16-7.5c4.74-4.35,9.12-9.09,13.85-13.87
		c-24.4-25-48.58-49.3-73.22-72.83c20.31,68.62,40.61,137.24,61,206.13c2.74,0,5.66,0,8.74,0c0.12-0.91,0.31-1.73,0.32-2.55
		c0.04-23.28,0.02-46.55,0.19-69.83c0.01-2.03,0.94-4.28,2.06-6.03c5.53-8.64,13.13-13.05,23.7-10.98c1.22,0.24,2.57-0.14,3.79,0.09
		c1.17,0.22,2.57,0.57,3.32,1.38c3.26,3.5,6.44,7.11,9.4,10.87c0.85,1.08,1.24,2.81,1.24,4.25c0.01,23.14-0.07,46.27-0.12,69.41
		c0,1.08,0.14,2.17,0.22,3.4c3.33,0,6.39,0,9.56,0c0.18-0.56,0.36-1.08,0.51-1.6c10.63-36.22,21.29-72.43,31.86-108.67
		c4.97-17.03,9.75-34.11,14.61-51.17c2.83-9.6,5.66-19.19,8.49-28.79c1.78-5.48,3.56-10.96,5.34-16.44
		c-0.27-0.12-0.53-0.25-0.8-0.37C438.09,417.93,434.5,421.8,430.92,425.66z"/>
	<path class="st11" d="M218.81,288.23c4.27,16.64,9.03,33.16,13.61,49.73c1.77,6.39,1.76,6.38,8.26,6.56
		c1.07,0.03,2.14,0.21,3.44,0.35c0.91,12.09,1.89,23.89,2.57,35.72c0.08,1.36-1.21,3.33-2.44,4.16
		c-36.01,24.28-72.06,48.51-108.24,72.54c-3.36,2.23-3.47,4.21-2.38,7.54c5.9,18.04,13.83,35.14,23.69,51.33
		c25.61,42.04,58.56,76.83,101.58,101.38c25.15,14.36,52.08,23.62,81.15,25.72c31.51,2.27,60.94-5.68,89.13-19.01
		c18.07-8.54,34.32-19.95,49.83-32.46c5.38-5.04,10.76-10.07,16.15-15.11c0.45-0.44,0.91-0.88,1.36-1.32
		c0.29-0.24,0.57-0.48,0.86-0.71c8.02-9.23,16.11-18.39,24.01-27.72c2.8-3.3,5.18-6.97,7.65-10.54
		c13.11-18.99,24.53-38.89,32.6-60.61c0.97-2.62,2.32-5.11,3.5-7.66c0.23-0.81,0.31-1.71,0.71-2.42c2.28-4.07,0.61-6.32-2.99-8.7
		c-18.83-12.41-37.5-25.07-56.22-37.65c-17.2-11.56-34.42-23.09-51.58-34.72c-1.12-0.76-2.6-2.35-2.48-3.39
		c1.44-12.15,3.16-24.26,4.82-36.55c2.77-0.12,5.43-0.24,8.27-0.36c0.36-1.08,0.77-2.11,1.06-3.17
		c4.98-17.88,10.05-35.74,14.81-53.68c0.78-2.95,2.08-4.01,4.85-4.67c10.92-2.63,21.88-5.13,32.69-8.15c-2.2,0.4-4.49,0.92-6.9,1.57
		c-99.35,27.17-205.11,25.71-296.01,7.74C217.42,284.8,218.26,286.08,218.81,288.23z M358.08,621.28c-5.31,0-10.71,0-16.35,0
		c0-22.48,0-44.8,0-67.62c5.58,0,10.77,0,16.35,0C358.08,576.12,358.08,598.56,358.08,621.28z M437.14,430.88
		c-2.83,9.6-5.66,19.19-8.49,28.79c-4.86,17.06-9.64,34.14-14.61,51.17c-10.57,36.24-21.23,72.45-31.86,108.67
		c-0.15,0.52-0.33,1.03-0.51,1.6c-3.17,0-6.23,0-9.56,0c-0.08-1.23-0.22-2.32-0.22-3.4c0.05-23.14,0.13-46.27,0.12-69.41
		c0-1.43-0.38-3.16-1.24-4.25c-2.96-3.76-6.13-7.37-9.4-10.87c-0.75-0.81-2.15-1.16-3.32-1.38c-1.23-0.23-2.57,0.15-3.79-0.09
		c-10.57-2.06-18.18,2.35-23.7,10.98c-1.12,1.75-2.04,4-2.06,6.03c-0.17,23.28-0.14,46.55-0.19,69.83c0,0.82-0.2,1.64-0.32,2.55
		c-3.08,0-6,0-8.74,0c-20.39-68.89-40.69-137.51-61-206.13c24.64,23.53,48.82,47.83,73.22,72.83c-4.73,4.77-9.12,9.51-13.85,13.87
		c-2.95,2.71-3.05,4.6-0.16,7.5c6.91,6.95,13.51,14.22,20.23,21.36c0.46-0.38,0.92-0.75,1.37-1.13c-0.47-2.73-0.94-5.47-1.43-8.3
		c7.27-3.02,14.29-4.83,21.92-1.07c2.77,1.36,4.33,2.29,2.92,5.45c-0.44,0.99-0.66,2.09-0.34,3.7c2.65-2.48,5.35-4.92,7.95-7.45
		c4.64-4.52,9.15-9.18,13.88-13.61c1.77-1.66,1.78-2.95,0.24-4.59c-2.89-3.07-5.76-6.16-8.63-9.25c-0.68-0.71-1.35-1.42-2.03-2.14
		c-1.39-1.35-2.78-2.7-4.52-4.4c1.9-1.82,3.68-3.52,5.45-5.21c0.81-0.86,1.62-1.72,2.43-2.58c1.39-1.37,2.77-2.74,4.16-4.11
		c5.22-5.49,10.35-11.05,15.66-16.44c10.06-10.22,20.2-20.36,30.34-30.49c1.18-1.18,2.57-2.16,3.86-3.24
		c3.59-3.86,7.18-7.73,10.77-11.59c0.27,0.12,0.53,0.25,0.8,0.37C440.7,419.92,438.92,425.4,437.14,430.88z M339.96,332.92
		c0.69-10.92,0.2-21.92,0.2-33.28c7.38,0.61,13.95,1.14,21.03,1.73c0,4.32,0,8.5,0,12.68c-0.01,6.2-0.64,12.48,0.14,18.58
		c0.83,6.46-2.32,10.32-6.56,14.02c-2.89,2.52-6.28,2.42-9.09-0.15C341.69,342.84,339.59,338.87,339.96,332.92z M273.93,312.8
		c13.15,3.66,26.36,7.15,39.6,10.47c2.51,0.63,3.08,1.65,3.03,3.98c-0.13,6.77,0.03,13.55-0.11,20.32c-0.07,3.13,0.76,5.27,3.94,6.5
		c2.32,0.9,4.36,2.5,7.17,4.16c-0.05,0.05-0.1,0.09-0.14,0.14l45.55-0.62c2.86-1.58,5.16-3.03,7.6-4.1c3.04-1.33,3.93-3.5,3.86-6.66
		c-0.15-6.63-0.12-13.27,0.13-19.89c0.05-1.23,1.25-3.15,2.32-3.49c18.65-5.91,37.37-11.62,56.07-17.37
		c0.37-0.11,0.78-0.11,1.98-0.27c-1.39,1.77-2.29,3.11-3.38,4.28c-7.5,8.05-14.86,16.24-22.65,23.99
		c-3.28,3.26-4.15,5.98-1.89,10.17c2.75,5.07,4.64,10.6,7.36,15.68c3.3,6.17,3.83,12.6,4.25,19.47c0.55,8.99-2.47,15.08-9.07,21.05
		c-16.1,14.56-31.51,29.89-47.45,45.15c-0.11-0.89-0.3-1.74-0.31-2.59c-0.03-2.68,0.06-5.36,0.03-8.04
		c-0.2-17.65-0.17-17.67-9.46-32.66c-0.64-1.03-2.38-1.9-3.64-1.94c-5.78-0.2-11.57-0.22-17.35,0.05c-1.25,0.06-2.7,1.38-3.57,2.5
		c-1.1,1.42-1.47,3.39-2.53,4.85c-5.83,7.95-6.98,16.92-6.29,26.42c0.26,3.61,0.04,7.26,0.04,11.79c-1.99-1.79-3.52-3.1-4.98-4.49
		c-16.32-15.58-32.69-31.12-48.86-46.85c-1.61-1.56-2.06-4.33-2.99-6.56c-0.15-0.36,0.03-0.85-0.04-1.26
		c-2.75-14.84,4.97-26.98,10.31-39.71c3.71-8.85,3.77-8.83-2.92-15.46c-6.41-6.35-12.85-12.68-19.25-19.05
		c-1.65-1.64-3.18-3.41-4.26-5.81C261.98,308.91,267.88,311.11,273.93,312.8z"/>
</g>
</svg>
